<svg width="332" height="96" viewBox="0 0 332 96" fill="none" xmlns="http://www.w3.org/2000/svg">
<rect width="332" height="96" rx="9" fill="#030708"/>
<path d="M330 85.669C330 86.9085 329.756 88.136 329.281 89.281C328.806 90.4261 328.11 91.4664 327.233 92.3425C326.356 93.2185 325.314 93.9131 324.169 94.3866C323.023 94.8601 321.795 95.1031 320.555 95.1018H11.4575C8.95226 95.1044 6.54855 94.1122 4.77499 92.3432C3.00143 90.5743 2.00326 88.1736 2 85.669V10.4452C2.00326 7.93944 3.00104 5.53743 4.77424 3.76654C6.54745 1.99566 8.95113 1.00065 11.4575 1H320.552C321.793 1 323.021 1.24432 324.167 1.71902C325.314 2.19371 326.355 2.88948 327.232 3.76657C328.109 4.64367 328.805 5.68491 329.279 6.83084C329.754 7.97676 329.998 9.20491 329.998 10.4452L330 85.669Z" fill="black"/>
<path d="M74.0289 47.5337C73.9574 39.5958 80.5301 35.734 80.8307 35.5543C77.1083 30.1285 71.3387 29.3872 69.3112 29.3281C64.4654 28.8183 59.765 32.2269 57.2966 32.2269C54.7788 32.2269 50.9776 29.3773 46.8807 29.4611C41.6088 29.5424 36.6768 32.5939 33.9718 37.3325C28.3894 46.9943 32.5528 61.1929 37.9011 69.0027C40.5765 72.83 43.7028 77.0982 47.7947 76.9479C51.7979 76.7854 53.2933 74.3988 58.1243 74.3988C62.9109 74.3988 64.3152 76.9479 68.4884 76.8519C72.7848 76.7854 75.4898 73.0098 78.0715 69.1504C81.1633 64.769 82.4049 60.4491 82.4542 60.2274C82.3556 60.1929 74.1126 57.0454 74.0289 47.5337ZM66.1456 24.1905C68.2987 21.4986 69.7719 17.8363 69.3629 14.1198C66.2466 14.2577 62.3493 16.2748 60.105 18.9076C58.1194 21.2277 56.3456 25.0304 56.8038 28.6065C60.3045 28.8675 63.8988 26.8406 66.1456 24.1905Z" fill="white"/>
<path d="M127.872 70.4863H122.912L120.195 61.9515H110.752L108.164 70.4863H103.335L112.693 41.4301H118.472L127.872 70.4863ZM119.376 58.3708L116.919 50.7836C116.659 50.0085 116.17 48.1833 115.454 45.31H115.367C115.078 46.5457 114.617 48.371 113.986 50.7836L111.571 58.3708H119.376ZM151.891 59.7529C151.891 63.3161 150.923 66.1327 148.986 68.2003C147.252 70.0409 145.097 70.9601 142.526 70.9601C139.75 70.9601 137.754 69.971 136.542 67.9885V78.9818H131.886V56.4211C131.886 54.1831 131.827 51.8884 131.713 49.5348H135.808L136.068 52.8557H136.155C137.708 50.3535 140.065 49.1025 143.227 49.1025C145.699 49.1025 147.763 50.0784 149.414 52.0325C151.063 53.991 151.891 56.563 151.891 59.7529ZM147.147 59.9232C147.147 57.8839 146.689 56.2027 145.767 54.8774C144.76 53.4997 143.408 52.8098 141.714 52.8098C140.565 52.8098 139.521 53.1941 138.588 53.9517C137.654 54.7159 137.042 55.7137 136.756 56.9495C136.628 57.4116 136.556 57.8872 136.54 58.3665V61.862C136.54 63.3838 137.007 64.6698 137.942 65.7222C138.877 66.7702 140.091 67.2964 141.585 67.2964C143.338 67.2964 144.703 66.6174 145.68 65.2702C146.658 63.9187 147.147 62.1371 147.147 59.9232ZM175.995 59.7529C175.995 63.3161 175.027 66.1327 173.09 68.2003C171.354 70.0409 169.201 70.9601 166.628 70.9601C163.852 70.9601 161.856 69.971 160.644 67.9885V78.9818H155.988V56.4211C155.988 54.1831 155.929 51.8884 155.815 49.5348H159.91L160.17 52.8557H160.257C161.808 50.3535 164.164 49.1025 167.329 49.1025C169.799 49.1025 171.863 50.0784 173.518 52.0325C175.165 53.991 175.995 56.563 175.995 59.7529ZM171.249 59.9232C171.249 57.8839 170.788 56.2027 169.867 54.8774C168.86 53.4997 167.512 52.8098 165.818 52.8098C164.669 52.8098 163.625 53.1941 162.688 53.9517C161.753 54.7159 161.144 55.7137 160.858 56.9495C160.716 57.5259 160.64 57.9953 160.64 58.3665V61.862C160.64 63.3838 161.109 64.6698 162.04 65.7222C162.974 66.768 164.189 67.2964 165.687 67.2964C167.443 67.2964 168.808 66.6174 169.782 65.2702C170.76 63.9187 171.249 62.1371 171.249 59.9232ZM202.945 62.3358C202.945 64.8096 202.08 66.8204 200.361 68.3728C198.47 70.0671 195.829 70.9164 192.444 70.9164C189.317 70.9164 186.81 70.3138 184.918 69.1064L185.995 65.2266C188.037 66.4362 190.28 67.0388 192.722 67.0388C194.478 67.0388 195.843 66.6414 196.817 65.8532C197.793 65.0628 198.286 64.0061 198.286 62.6873C198.286 61.5061 197.878 60.5171 197.076 59.7114C196.271 58.9079 194.938 58.159 193.067 57.4713C187.978 55.5739 185.432 52.7989 185.432 49.1483C185.432 46.7641 186.331 44.8121 188.127 43.286C189.922 41.762 192.302 41 195.264 41C197.909 41 200.112 41.4607 201.861 42.3799L200.693 46.1746C199.046 45.2838 197.188 44.8383 195.109 44.8383C193.466 44.8383 192.178 45.2423 191.256 46.0457C190.481 46.7641 190.088 47.6396 190.088 48.6789C190.088 49.8251 190.536 50.7771 191.427 51.5238C192.2 52.2116 193.611 52.9605 195.65 53.7639C198.153 54.7726 199.992 55.9473 201.169 57.2966C202.355 58.6459 202.945 60.3293 202.945 62.3358ZM218.379 53.0281H213.246V63.2004C213.246 65.7877 214.15 67.0781 215.963 67.0781C216.795 67.0781 217.485 67.0082 218.031 66.8619L218.16 70.3968C217.243 70.7396 216.035 70.912 214.539 70.912C212.7 70.912 211.263 70.3509 210.226 69.2287C209.193 68.1064 208.673 66.2266 208.673 63.5803V53.0194H205.616V49.526H208.673V45.6899L213.246 44.31V49.526H218.379V53.0281ZM241.489 59.838C241.489 63.0585 240.567 65.7025 238.729 67.7702C236.805 69.899 234.245 70.9601 231.054 70.9601C227.975 70.9601 225.527 69.9405 223.701 67.9034C221.875 65.8619 220.962 63.2899 220.962 60.1874C220.962 56.9407 221.906 54.2814 223.786 52.2137C225.671 50.1439 228.209 49.109 231.399 49.109C234.474 49.109 236.944 50.1308 238.814 52.1701C240.6 54.1482 241.489 56.7027 241.489 59.838ZM236.663 59.945C236.663 58.0259 236.248 56.3796 235.416 55.0019C234.439 53.3382 233.042 52.5063 231.231 52.5063C229.366 52.5063 227.936 53.3382 226.961 55.0019C226.127 56.3796 225.712 58.0542 225.712 60.0324C225.712 61.9537 226.127 63.6043 226.961 64.9777C227.968 66.6414 229.373 67.4733 231.192 67.4733C232.972 67.4733 234.367 66.6239 235.376 64.9362C236.232 63.5257 236.663 61.8686 236.663 59.945ZM256.63 53.6286C256.146 53.5412 255.655 53.498 255.163 53.4997C253.525 53.4997 252.258 54.1154 251.367 55.3556C250.594 56.4473 250.205 57.8272 250.205 59.4931V70.4863H245.549V56.1329C245.553 53.9335 245.508 51.7343 245.414 49.5369H249.469L249.64 53.5456H249.768C250.262 52.1679 251.035 51.0566 252.096 50.2247C253.068 49.4978 254.248 49.1042 255.462 49.1025C255.892 49.1025 256.281 49.133 256.626 49.1876L256.63 53.6286ZM277.454 59.0193C277.466 59.7269 277.409 60.434 277.284 61.1306H263.315C263.368 63.2004 264.045 64.7855 265.342 65.8772C266.519 66.851 268.041 67.3401 269.911 67.3401C271.979 67.3401 273.866 67.0126 275.563 66.351L276.292 69.5802C274.309 70.4448 271.968 70.8749 269.267 70.8749C266.017 70.8749 263.466 69.9186 261.61 68.0104C259.758 66.0999 258.83 63.5323 258.83 60.3162C258.83 57.1591 259.692 54.5281 261.42 52.4299C263.228 50.1898 265.672 49.0697 268.747 49.0697C271.767 49.0697 274.054 50.1898 275.607 52.4299C276.836 54.205 277.454 56.4058 277.454 59.0193ZM273.014 57.8119C273.047 56.4298 272.741 55.2399 272.11 54.2334C271.304 52.9364 270.064 52.2902 268.402 52.2902C266.88 52.2902 265.639 52.9212 264.696 54.1875C263.92 55.194 263.459 56.4036 263.318 57.8075L273.014 57.8119Z" fill="white"/>
<path d="M106.828 29.9158C105.734 29.9158 104.788 29.866 104 29.7819V18.7316C105.102 18.5732 106.215 18.4951 107.329 18.4981C111.839 18.4981 113.916 20.5642 113.916 23.9322C113.916 27.8171 111.463 29.9158 106.828 29.9158ZM107.488 19.915C106.879 19.915 106.361 19.9493 105.931 20.0318V28.4319C106.164 28.4663 106.61 28.4818 107.237 28.4818C110.192 28.4818 111.874 26.9154 111.874 23.982C111.874 21.3663 110.352 19.915 107.488 19.915ZM120.388 30C117.846 30 116.199 28.2327 116.199 25.8334C116.199 23.3328 117.881 21.55 120.532 21.55C123.037 21.55 124.721 23.2331 124.721 25.7012C124.721 28.2327 122.985 30 120.388 30ZM120.462 22.8656C119.065 22.8656 118.171 24.0816 118.171 25.7819C118.171 27.4495 119.084 28.6655 120.443 28.6655C121.803 28.6655 122.716 27.3654 122.716 25.7475C122.716 24.0988 121.821 22.8656 120.462 22.8656ZM139.214 21.7166L136.494 29.8162H134.721L133.594 26.2988C133.314 25.4385 133.081 24.5654 132.895 23.6831H132.858C132.716 24.5659 132.447 25.4504 132.161 26.2988L130.962 29.8162H129.171L126.611 21.7166H128.598L129.583 25.5672C129.815 26.4843 130.01 27.3499 130.173 28.1675H130.21C130.352 27.4856 130.584 26.6337 130.925 25.5844L132.161 21.7183H133.736L134.919 25.5019C135.204 26.4191 135.437 27.319 135.618 28.1692H135.669C135.795 27.3362 135.992 26.4517 136.259 25.5019L137.316 21.7183L139.214 21.7166ZM149.23 29.8162H147.297V25.1653C147.297 23.7329 146.706 23.015 145.543 23.015C144.397 23.015 143.61 23.9322 143.61 24.9987V29.8162H141.677V24.0318C141.677 23.3156 141.658 22.5479 141.605 21.7149H143.305L143.396 22.9652H143.449C143.969 22.0996 145.024 21.55 146.207 21.55C148.033 21.55 149.231 22.8502 149.231 24.9661L149.23 29.8162ZM154.56 29.8162H152.625V18H154.56V29.8162ZM161.608 30C159.068 30 157.419 28.2327 157.419 25.8334C157.419 23.3328 159.101 21.55 161.75 21.55C164.256 21.55 165.939 23.2331 165.939 25.7012C165.94 28.2327 164.203 30 161.608 30ZM161.68 22.8656C160.283 22.8656 159.389 24.0816 159.389 25.7819C159.389 27.4495 160.304 28.6655 161.659 28.6655C163.021 28.6655 163.932 27.3654 163.932 25.7475C163.934 24.0988 163.041 22.8656 161.68 22.8656ZM173.56 29.8162L173.42 28.8836H173.368C172.778 29.6342 171.916 30 170.824 30C169.266 30 168.159 28.9833 168.159 27.6161C168.159 25.617 170.02 24.5831 173.243 24.5831V24.4337C173.243 23.3671 172.636 22.833 171.437 22.833C170.579 22.833 169.827 23.0339 169.164 23.4341L168.772 22.2508C169.576 21.7836 170.579 21.55 171.758 21.55C174.03 21.55 175.177 22.6664 175.177 24.9008V27.8841C175.177 28.7016 175.216 29.3353 175.303 29.8179L173.56 29.8162ZM173.294 25.7819C171.147 25.7819 170.07 26.2662 170.07 27.4152C170.07 28.2653 170.625 28.681 171.396 28.681C172.379 28.681 173.294 27.982 173.294 27.0322V25.7819ZM184.564 29.8162L184.473 28.5161H184.42C183.865 29.4985 182.931 30 181.627 30C179.53 30 177.977 28.2825 177.977 25.866C177.977 23.3328 179.587 21.5483 181.786 21.5483C182.95 21.5483 183.774 21.9141 184.239 22.6492H184.278V18H186.213V27.6333C186.213 28.4165 186.233 29.1498 186.285 29.8162H184.564ZM184.278 25.0502C184.278 23.9167 183.472 22.9498 182.242 22.9498C180.808 22.9498 179.932 24.1331 179.932 25.7991C179.932 27.4324 180.842 28.5505 182.203 28.5505C183.418 28.5505 184.278 27.5663 184.278 26.4002V25.0502ZM198.48 30C195.94 30 194.293 28.2327 194.293 25.8334C194.293 23.3328 195.975 21.55 198.624 21.55C201.131 21.55 202.813 23.2331 202.813 25.7012C202.815 28.2327 201.079 30 198.48 30ZM198.552 22.8656C197.158 22.8656 196.263 24.0816 196.263 25.7819C196.263 27.4495 197.176 28.6655 198.534 28.6655C199.895 28.6655 200.806 27.3654 200.806 25.7475C200.81 24.0988 199.915 22.8656 198.552 22.8656ZM213.208 29.8162H211.273V25.1653C211.273 23.7329 210.683 23.015 209.519 23.015C208.374 23.015 207.588 23.9322 207.588 24.9987V29.8162H205.653V24.0318C205.653 23.3156 205.635 22.5479 205.581 21.7149H207.282L207.372 22.9652H207.426C207.944 22.0996 209.001 21.5483 210.181 21.5483C212.007 21.5483 213.208 22.8484 213.208 24.9644V29.8162ZM226.213 23.0666H224.087V26.9996C224.087 28.0009 224.459 28.5006 225.212 28.5006C225.553 28.5006 225.839 28.4663 226.069 28.4165L226.123 29.7836C225.749 29.9176 225.247 29.9845 224.623 29.9845C223.1 29.9845 222.189 29.2014 222.189 27.1507V23.0666H220.92V21.7166H222.189V20.2327L224.087 19.6986V21.7149H226.213V23.0666ZM236.446 29.8162H234.515V25.1997C234.515 23.7501 233.927 23.0167 232.761 23.0167C231.76 23.0167 230.826 23.6505 230.826 24.9334V29.8162H228.895V18H230.826V22.8656H230.865C231.474 21.9828 232.355 21.5483 233.48 21.5483C235.321 21.5483 236.446 22.8811 236.446 24.9987V29.8162ZM246.93 26.1992H241.129C241.166 27.7329 242.256 28.5985 243.87 28.5985C244.728 28.5985 245.517 28.4646 246.215 28.2155L246.515 29.4659C245.693 29.7991 244.724 29.9657 243.597 29.9657C240.877 29.9657 239.267 28.365 239.267 25.8832C239.267 23.3997 240.915 21.5328 243.38 21.5328C245.602 21.5328 246.997 23.0666 246.997 25.3834C247.009 25.6568 246.987 25.9307 246.93 26.1992ZM245.158 24.9163C245.158 23.666 244.481 22.7832 243.245 22.7832C242.135 22.7832 241.257 23.6831 241.131 24.9163H245.158Z" fill="white"/>
</svg>
