<svg width="167" height="166" viewBox="0 0 167 166" fill="none" xmlns="http://www.w3.org/2000/svg">
<path d="M151.591 36.1156C177.426 73.5953 167.877 124.848 130.277 150.573C92.6735 176.323 41.2496 166.811 15.415 129.323C-10.4195 91.8437 -0.870837 40.586 36.735 14.839C74.3383 -10.9001 125.757 -1.38537 151.57 36.089" fill="#C3D82E"/>
<path d="M119.041 157.076C119.041 157.076 79.5988 69.4781 121.615 9.66992L125.141 11.609C125.141 11.609 81.1312 71.704 127.401 152.592L119.041 157.081M15.4362 129.337C15.4362 129.337 54.2999 71.8049 43.5893 10.6474L38.8029 13.9279C38.8029 13.9279 59.7765 30.997 12.4434 124.991" fill="white"/>
</svg>
