<svg width="80" height="81" viewBox="0 0 80 81" fill="none" xmlns="http://www.w3.org/2000/svg">
<path d="M48.1314 26.0125L12.3813 64.2688C12.3813 64.2688 23.7814 77.9625 41.9876 77.1375C54.5126 76.5688 62.0251 71.9 68.1751 64.8375C75.6876 56.2063 77.3813 43.5438 76.9438 37.7375C76.3751 30.225 71.2501 20.4313 67.2626 17.4688C63.2751 14.5063 48.1314 26.0125 48.1314 26.0125Z" fill="#D7CCC6"/>
<path d="M15.6812 13.8312C3.83117 24.375 -4.00008 48.3125 12.3812 64.2687C21.1499 72.8062 49.8374 73.2375 63.4999 55.3625C69.9187 46.9687 75.0687 33.8375 71.5874 23.3937C70.2187 19.2937 66.5437 16.35 63.2749 13.6C47.5624 0.393731 30.1437 0.962481 15.6812 13.8312Z" fill="#F1EDEC"/>
<path d="M43.5437 78.3063L41.1124 78.1062C41.1625 77.875 46.225 55.125 31.425 40.2125C24.85 33.5875 18.7937 30.525 13.4187 31.1188C7.8187 31.7313 4.0937 36.9188 4.0687 36.9688L2.9187 34.6375C3.06245 34.4125 6.36245 29.3813 13.15 28.6375C19.325 27.9688 26.0687 31.2688 33.2062 38.4563C48.9812 54.3625 43.7687 77.3187 43.5437 78.3063ZM76.25 38.7563C76.0812 38.6438 59.65 27.0125 51.1687 19.775C43.5437 13.275 33.4375 4.19375 33.3437 4.1L35.0999 3C35.1937 3.0875 44.925 11.7188 52.525 18.2C60.9312 25.3687 76.6875 36.6625 76.8562 36.775L76.25 38.7563Z" fill="#979892"/>
<path d="M42.7187 10.9063C42.4062 11.2375 41.5999 13.65 41.2874 14.9938C41.1062 15.7625 41.2187 16.9563 42.1812 17.1125C43.2562 17.2938 43.6624 16.675 43.9937 15.7563C44.3249 14.8375 44.9124 13.175 44.9124 13.175C44.9124 13.175 46.6249 12.6063 47.4687 12.3563C48.5937 12.025 48.9249 11.5625 48.9499 10.975C48.9749 10.3875 48.3624 9.28752 46.4687 9.72502C45.2999 10 43.1749 10.4188 42.7187 10.9063ZM37.1937 6.24377C36.9249 6.46252 35.6374 9.59377 35.4312 9.98752C35.2187 10.3813 35.0874 11.3875 35.8249 11.8125C36.5624 12.2375 37.3687 11.5063 37.6499 10.8813C37.9249 10.2563 38.7312 8.40002 38.7312 8.40002C38.7312 8.40002 40.6999 8.29377 41.4062 8.19377C42.2687 8.07502 42.9249 7.83752 42.8749 6.84377C42.8249 5.85002 41.2187 5.92502 39.5624 6.03127C38.5187 6.09377 37.3749 6.09377 37.1937 6.24377ZM33.3374 2.63127C32.8874 2.83752 31.1374 4.62502 30.9062 4.93127C30.6749 5.23752 30.4999 5.90002 31.0874 6.36252C31.6749 6.82502 32.4937 6.43752 32.9249 6.13127C33.3624 5.82502 34.1749 4.82502 34.1749 4.82502C34.1749 4.82502 35.8624 4.85002 36.3499 4.87502C36.8374 4.90002 37.4749 4.51877 37.4749 3.75002C37.4749 2.98127 36.5812 2.67502 35.8374 2.65002C35.0999 2.63127 33.6187 2.50002 33.3374 2.63127ZM49.7874 16.7875C49.3749 17.1125 48.3624 20.7438 48.1499 21.475C47.9374 22.2063 47.5937 23.7688 48.6749 24.1063C49.8124 24.4625 50.5749 23.9563 50.9124 22.6688C51.2249 21.4813 51.9374 19 51.9374 19C51.9374 19 54.6687 17.9938 55.2687 17.7625C55.8687 17.5313 56.5624 16.7688 56.1437 15.8313C55.7249 14.8938 54.5312 15.0125 53.9437 15.225C53.9499 15.2313 50.1874 16.475 49.7874 16.7875ZM56.8374 22.8375C56.5499 23.2125 55.5874 26.5688 55.4312 27.2625C55.2749 27.95 55.2812 29.05 56.3749 29.3313C57.2687 29.5625 57.9874 29.1 58.1874 28.2563C58.5249 26.8563 59.2624 24.8313 59.2624 24.8313C59.2624 24.8313 61.2062 23.7313 61.9437 23.35C62.6874 22.9688 63.0187 21.9188 62.5562 21.175C62.0937 20.4313 61.0499 20.5375 60.0249 20.8938C59.0062 21.2563 57.0937 22.5063 56.8374 22.8375ZM63.8312 28.1125C63.4687 28.6563 63.3687 31.8688 63.3687 32.3563C63.3687 32.8438 63.7249 34.1188 64.8749 34.1188C65.8999 34.1188 66.3312 33.0188 66.3312 32.4563C66.3312 31.8938 66.4562 29.7188 66.4562 29.7188C66.4562 29.7188 67.7749 29.0188 68.2437 28.6938C68.8812 28.2563 69.5999 27.4438 69.1374 26.575C68.6749 25.7063 67.4499 25.9625 66.6562 26.2938C66.0999 26.5375 64.0874 27.7313 63.8312 28.1125ZM70.2312 33.3063C70.0062 33.85 69.9937 36.8813 70.0437 37.7C70.0937 38.5188 70.7874 39.2313 71.6812 39.2063C72.5749 39.1813 72.9874 38.3375 72.9562 37.675C72.9249 37.0125 73.0062 34.8375 73.0062 34.8375C73.0062 34.8375 74.1937 34.0125 74.5124 33.7875C74.9999 33.4563 75.0999 32.6625 74.6687 32.05C74.2312 31.4375 73.3374 31.2563 72.4937 31.7438C71.6499 32.2313 70.3187 33.0875 70.2312 33.3063ZM74.9749 36.7C74.5687 37.4 74.9499 40.5875 74.9499 40.8938C74.9499 41.2 75.0499 42.25 76.0999 42.25C77.0187 42.25 77.3249 41.6875 77.3499 41.175C77.3749 40.6625 77.2999 37.775 77.2999 37.775C77.2999 37.775 78.1937 37.4938 77.8124 36.3188C77.4312 35.15 75.3999 35.975 74.9749 36.7ZM39.1499 76.6313C38.7999 77.25 38.8749 78.0625 40.1937 78.725C41.5187 79.3875 41.7874 79.425 42.0687 79.4438C42.5624 79.4688 43.6937 79.0875 44.4374 78.675C45.0312 78.3438 45.7624 77.85 45.2374 76.8875C44.7499 75.9875 42.0999 77.05 42.0999 77.05C42.0999 77.05 39.7562 75.5625 39.1499 76.6313ZM38.9812 70.9875C38.2499 71.6625 38.7312 72.6688 40.2187 73.6313C41.5437 74.4875 42.2874 75.1188 42.8624 75.1188C43.4374 75.1188 45.6062 74.025 46.1687 73.7125C47.0249 73.2438 47.2999 72.3063 46.6374 71.6438C45.9749 70.9813 45.0374 71.6688 44.5687 71.9188C44.0999 72.1688 43.0249 72.6875 43.0249 72.6875C43.0249 72.6875 41.6187 71.6688 41.1499 71.3375C40.6812 71.0063 39.6999 70.325 38.9812 70.9875ZM38.2687 64.0625C37.6687 64.9625 38.0187 65.9063 39.4499 66.7063C40.8812 67.5063 42.6749 68.2188 43.2499 68.3063C43.8249 68.3938 46.0874 66.4313 46.5249 66.0188C46.9624 65.6063 48.1749 64.3125 47.4062 63.4313C46.4874 62.3813 45.5062 63.1813 44.6249 63.7875C43.9499 64.25 43.1624 64.8313 43.1624 64.8313C43.1624 64.8313 41.6499 64.4188 40.7687 64.0063C39.8937 63.5938 38.8187 63.2375 38.2687 64.0625ZM41.8374 56.7188C41.8374 56.7188 43.4062 55.0938 43.9874 54.5438C44.5687 53.9938 45.5562 53.4438 46.2999 54.325C47.0437 55.2063 46.2749 56.5313 45.5812 57.1625C44.8874 57.7938 43.1312 59.8625 42.6312 59.9438C42.1312 60.025 38.4749 59.3625 37.4249 58.8125C36.8062 58.4875 35.8249 57.875 36.3812 56.6375C36.8374 55.6125 37.8687 55.7313 38.6374 55.8938C39.4062 56.0563 41.8374 56.7188 41.8374 56.7188ZM38.0999 47.8813C38.0999 47.8813 39.4249 45.1813 39.8624 44.2188C40.3062 43.2563 40.8562 42.375 42.0937 42.8125C43.3312 43.25 42.9562 44.4188 42.5374 45.5375C42.0437 46.8625 40.6624 50.3563 40.0562 50.6625C39.3187 51.0313 35.4312 51.1563 34.0812 51.1313C33.4749 51.1188 32.7874 50.6875 32.8124 49.8625C32.8374 49.0375 33.3499 48.4625 34.6874 48.2375C35.5124 48.1 38.0999 47.8813 38.0999 47.8813ZM31.9874 38.9563C31.8499 39.0375 29.0062 40.1813 28.2937 40.3875C27.2499 40.6875 26.8874 41.7375 27.1124 42.4813C27.3374 43.225 28.3499 43.6125 29.5374 43.25C30.7187 42.8938 34.2999 41.9813 34.6312 41.4625C34.9624 40.9438 35.5124 37.25 35.6249 36.2875C35.7374 35.325 35.7624 34.1125 34.4937 33.9188C33.2249 33.725 32.7062 34.5813 32.5937 35.4875C32.5249 36.0438 31.9874 38.9563 31.9874 38.9563ZM24.3249 32.775C24.3249 32.775 24.5437 30.2688 24.6249 29.525C24.7062 28.7813 24.9812 27.7875 26.2749 27.875C27.5687 27.9625 27.4312 29.6375 27.4312 30.7125C27.4312 31.7875 27.1812 34.5938 27.0187 34.7313C26.8562 34.8688 25.1187 36.2188 24.2124 36.825C23.3062 37.4313 21.8437 37.8375 21.2937 37.0125C20.7437 36.1875 21.5437 34.9 22.4249 34.2375C23.3062 33.575 24.3249 32.775 24.3249 32.775ZM16.4062 24.3438C15.1312 24.6625 15.1937 25.9938 15.5812 27.3438C15.9687 28.6938 16.1874 29.7938 16.1874 29.7938C16.1874 29.7938 15.2812 31.2 14.8937 31.6938C14.5062 32.1875 13.2937 33.65 14.5624 34.6938C15.8312 35.7375 17.0687 33.8938 17.5374 33.3438C17.9937 32.8125 19.4937 30.8125 19.4937 30.5375C19.4937 29.7375 18.6687 26.7938 18.4749 26.1563C18.2812 25.5188 17.8374 23.9875 16.4062 24.3438ZM7.25619 26.45C6.68744 26.8375 6.39994 28.0188 7.11869 29.0375C7.70619 29.875 8.13744 30.7438 8.13744 30.7438C8.13744 30.7438 7.36869 32.975 7.06244 33.6938C6.75619 34.4125 6.39994 35.9813 7.66869 36.475C8.93744 36.9688 9.81869 35.5938 10.1499 34.575C10.4812 33.5563 11.3624 31.2688 11.3874 30.5813C11.4062 30.125 10.2062 27.8813 9.68119 27.1125C9.15619 26.3438 8.11244 25.875 7.25619 26.45ZM5.16244 34.3C5.30619 34.9563 4.94369 36.8063 4.58119 38.375C4.47494 38.8375 4.31869 39.875 3.01244 39.5563C1.88119 39.2813 2.34994 37.85 2.48744 37.1313C2.56869 36.7063 2.89994 35.3438 2.89994 35.3438C2.89994 35.3438 2.29994 35.0188 2.31869 34.325C2.34369 33.4188 2.81244 33.1125 3.55619 33.0563C4.29994 33 5.04994 33.8063 5.16244 34.3Z" fill="#ED520A"/>
</svg>
