<svg width="208" height="209" viewBox="0 0 208 209" fill="none" xmlns="http://www.w3.org/2000/svg">
<path d="M33.2217 180.706C33.2217 180.706 66.1497 215.617 122.634 206.76C179.119 197.92 201.768 148.005 206.428 119.551C212.356 83.3107 195.926 58.3964 195.052 57.0324C194.401 56.031 33.2217 180.706 33.2217 180.706Z" fill="#DC5819"/>
<path d="M30.6522 30.9957C-3.1838 66.8909 -8.92308 119.327 16.5182 159.849C28.3565 178.703 35.6034 182.536 35.6034 182.536C35.6034 182.536 90.9575 218.31 153.164 164.079C206.445 117.635 195.155 57.1531 195.155 57.1531C195.155 57.1531 188.508 42.5118 174.528 28.613C143.502 -2.25792 74.1508 -15.1726 30.6522 30.9957Z" fill="#EF6C32"/>
<path d="M166.271 21.5515C165.774 21.586 116.279 25.1773 63.9231 96.1045C30.858 140.891 32.4855 172.505 33.7705 181.172C33.7705 181.172 31.252 179.083 29.4703 177.149C27.6885 175.233 26.3008 173.524 26.3008 173.524C26.1638 158.347 30.6695 129.583 58.4408 91.978C100.706 34.6734 141.121 19.7386 158.064 15.8711C158.064 15.8711 160.137 17.097 162.142 18.3573C163.615 19.2897 166.271 21.5515 166.271 21.5515Z" fill="#2D3130"/>
<path d="M21.6745 41.8213C27.1739 50.9203 40.4513 70.5858 63.4427 91.1147C92.379 116.979 122.463 138.008 152.821 153.599C167.161 160.971 178.177 165.288 185.972 167.826C185.972 167.826 184.841 169.57 183.779 171.003C182.717 172.436 181.552 173.644 181.552 173.644C173.62 170.934 163.032 166.617 149.686 159.746C118.814 143.878 88.2501 122.521 58.8856 96.2771C37.1277 76.836 23.9359 58.4308 17.46 48.1232C17.46 48.1232 18.368 46.3104 19.5672 44.7046C20.7665 43.0989 21.6745 41.8213 21.6745 41.8213Z" fill="#2D3130"/>
<path d="M86.1089 2.09326C83.659 4.90756 80.164 9.48295 76.0866 16.4065C72.3518 22.7257 70.433 29.0104 68.2058 36.2965C64.5566 48.2443 60.4278 61.7805 46.9105 79.0807C28.1336 103.114 9.68227 111.143 1.08192 113.716C1.08192 113.716 0.842068 111.471 0.756407 109.9C0.670746 108.329 0.70501 106.55 0.70501 106.55C8.87706 103.736 25.0498 95.8629 41.5139 74.8161C54.2431 58.5173 58.1663 45.6372 61.6442 34.2764C63.9056 26.8867 66.03 19.9114 70.1931 12.8843C72.1633 9.55201 74.0136 6.70318 75.7097 4.32053C75.7097 4.32053 77.6113 3.6817 80.2154 3.09467C82.237 2.61123 86.1089 2.09326 86.1089 2.09326ZM112.732 207.969C106.993 202.737 95.1376 190.789 86.4858 174.163C76.9089 155.775 72.4203 128.115 85.2009 110.832C99.7975 91.1148 127.055 88.4387 151.828 88.4387H151.931C183.471 88.4559 207.199 95.1032 207.473 95.1895C207.473 95.1895 207.285 92.8587 207.028 90.8731C206.805 89.1638 206.565 87.5754 206.565 87.5754C205.366 87.2646 184.396 81.5497 151.931 81.5324H151.828C125.359 81.5324 96.097 84.5366 79.7015 106.706C69.1481 120.967 65.2762 148.35 80.421 177.374C87.548 191.048 96.5253 201.598 103.087 208.245C103.087 208.245 105.006 208.314 107.456 208.279C109.871 208.245 112.732 207.969 112.732 207.969Z" fill="#2D3130"/>
</svg>
