<svg width="122" height="99" viewBox="0 0 122 99" fill="none" xmlns="http://www.w3.org/2000/svg">
<path d="M65.0224 85.1119C65.0224 89.1389 64.9468 92.9925 65.058 96.8371C65.107 98.5147 64.5507 98.9863 62.9043 98.9908C57.0617 99.013 57.0617 99.0709 57.0617 93.2372C57.0617 90.5807 57.0617 87.9286 57.0617 85.1208C39.307 84.213 21.8371 82.8113 5.45742 74.0363C5.45742 76.0209 5.34618 77.7608 5.48857 79.4784C5.64431 81.3785 5.06584 82.2818 3.03673 82.0104C2.16902 81.8947 1.27016 81.9926 0.527046 81.9926C0.286757 81.7211 0.104316 81.6143 0.104316 81.5031C0.0776167 74.686 -0.171572 67.8511 0.211111 61.0563C0.313456 59.2452 2.01328 57.1449 3.55291 55.8589C8.1362 52.0321 13.7652 50.2299 19.4565 48.8193C39.4628 43.8445 59.7449 43.1191 80.2007 45.0281C88.9356 45.8424 97.5638 47.164 105.947 49.7716C110.757 51.2667 115.501 52.9977 119.319 56.5175C121.223 58.2751 122.087 60.3176 121.993 63.0186C121.797 68.5008 121.855 73.9918 121.966 79.4784C122.007 81.374 121.548 82.2774 119.515 82.0104C118.576 81.8858 117.606 81.9881 116.364 81.9881V73.9785C100.234 82.7846 82.8305 84.1552 65.0269 85.1074L65.0224 85.1119ZM81.1396 60.9094C81.1396 61.8839 81.2197 62.6092 81.1262 63.3168C80.8192 65.6173 81.8693 66.2403 84.0453 66.1379C87.5117 65.9822 90.9959 66.0934 94.4712 66.0934C95.7661 66.0934 97.0565 66.0934 98.5694 66.0934C98.4404 64.5182 98.4537 63.3257 98.2001 62.1954C98.0888 61.7015 97.4392 60.9717 97.0253 60.9628C91.7968 60.8783 86.5728 60.9094 81.144 60.9094H81.1396ZM40.6331 60.8961C36.1521 60.8961 31.7068 60.8961 27.2614 60.8961C26.594 60.8961 25.9176 60.8338 25.259 60.9139C22.7093 61.2209 23.9953 63.3123 23.6571 64.5983C23.2833 66.0044 24.378 66.1023 25.4237 66.0979C29.206 66.089 32.9883 66.0979 36.7706 66.0979C41.1181 66.089 41.2204 65.9733 40.9223 61.5858C40.9134 61.4523 40.8155 61.3233 40.6286 60.9005L40.6331 60.8961ZM78.7233 60.8961C73.8419 60.8961 68.9026 60.9717 63.9678 60.856C62.1122 60.8115 61.8942 61.7015 61.9832 63.1521C62.0722 64.585 61.6183 66.2091 64.0568 66.129C67.6745 66.0133 71.3011 66.1023 74.9232 66.1023C78.219 66.1023 79.4872 64.3669 78.7278 60.8961H78.7233ZM59.6515 61.0385C59.1042 60.9895 58.5257 60.9005 57.9517 60.9005C53.3506 60.8916 48.745 60.7581 44.1529 60.9673C41.9725 61.0652 43.0894 63.1699 42.7912 64.3669C42.4931 65.5595 43.1383 66.1157 44.3931 66.1068C48.2511 66.0756 52.1091 66.1023 55.9671 66.1068C60.2834 66.1068 60.3234 66.0667 59.9007 61.7727C59.8784 61.5635 59.7627 61.3633 59.6515 61.0429V61.0385ZM40.4907 66.5651C35.28 66.5651 30.1938 66.6497 25.1166 66.534C22.3756 66.4717 23.3545 68.5052 23.0608 69.7868C22.6692 71.4732 23.9152 71.58 25.0766 71.5978C28.7788 71.6512 32.4766 71.6779 36.1788 71.6913C39.2017 71.7002 40.6405 69.9929 40.4951 66.5696L40.4907 66.5651ZM81.3398 66.6764C81.3843 67.5886 81.4822 68.2516 81.4333 68.9013C81.2686 71.1128 82.1986 71.8648 84.4369 71.7402C88.1347 71.54 91.8547 71.7002 95.5614 71.6201C99.3481 71.5355 99.4861 71.3264 98.7741 67.6108C98.7207 67.326 98.5872 67.0546 98.4582 66.6764H81.3398ZM62.1434 66.6942C62.09 67.5352 62.0232 68.1136 62.0143 68.6966C61.9876 70.6841 62.9488 71.6809 64.8978 71.6868C68.3776 71.6913 71.8528 71.6913 75.3326 71.6868C78.3139 71.6839 79.6444 70.1858 79.3241 67.1925C79.3107 67.0635 79.1906 66.9433 79.0437 66.6942H62.1434ZM42.7378 66.6675C42.6622 67.5352 42.6622 68.2738 42.5242 68.9858C42.0971 71.1885 43.0404 71.8159 45.163 71.7313C48.7095 71.5889 52.2648 71.7402 55.8113 71.6779C60.0876 71.6023 60.052 72.7637 59.8918 67.3394C59.8873 67.1436 59.7405 66.9478 59.6293 66.6675H42.7378ZM24.1955 60.371C28.7744 60.371 33.1174 60.371 37.4604 60.371C40.0294 60.371 41.3213 59.0865 41.3361 56.5175C41.3361 56.3083 41.2427 56.0992 41.1492 55.6987C40.4595 55.6631 39.7431 55.5919 39.0311 55.5919C35.1153 55.583 31.195 55.7477 27.2926 55.5296C24.9075 55.3961 24.0576 56.2772 24.1911 58.4932C24.2222 59.0049 24.1955 59.5166 24.1955 60.3754V60.371ZM97.8753 60.3621C97.8753 59.4855 97.8753 58.9738 97.8753 58.462C97.8753 56.3439 97.1099 55.2671 94.7026 55.5296C92.4376 55.7788 90.1282 55.583 87.8365 55.583C85.5048 55.583 83.1731 55.583 80.6946 55.583C80.7702 56.9803 80.6946 58.0393 80.9393 59.0183C81.0728 59.5433 81.767 60.2998 82.2209 60.3087C87.3737 60.3977 92.5311 60.3666 97.8753 60.3666V60.3621ZM78.8702 60.3488C78.8702 58.9916 78.9859 57.8791 78.8168 56.8156C78.7456 56.3573 78.0826 55.6542 77.6776 55.6453C72.8718 55.5608 68.0616 55.543 63.2558 55.6676C62.8109 55.6809 62.0499 56.8112 62.0499 57.4208C62.0499 58.422 61.2267 60.2286 63.0556 60.2865C68.2797 60.46 73.5126 60.3488 78.8702 60.3488ZM59.8606 55.7388H43.3118V60.2064H59.8606V55.7388ZM43.2629 54.9467H59.8161V50.5814H43.6189C43.4987 52.0454 43.3919 53.3581 43.2629 54.9467ZM24.8852 54.8666H41.3762V50.4213C37.0821 50.4213 32.9438 50.4213 28.8055 50.4213C24.8986 50.4213 24.5382 50.8262 24.8852 54.871V54.8666ZM78.7545 55.0535C78.6254 53.3804 78.5231 52.0187 78.4029 50.4391C73.1922 50.4391 68.164 50.3768 63.1401 50.4702C61.338 50.5058 62.0544 52.0855 61.9832 53.0555C61.9209 53.9588 61.7207 55.0757 63.287 55.0624C68.3197 55.0312 73.3569 55.0535 78.7545 55.0535ZM97.1677 54.9778C97.3813 50.6927 97.1321 50.4213 93.1585 50.4168C90.0436 50.4168 86.9332 50.4168 83.8184 50.4168C82.7548 50.4168 81.6869 50.4168 80.4944 50.4168C80.5833 52.2368 80.6545 53.6029 80.7213 54.9778H97.1633H97.1677ZM9.85827 61.0029C9.92947 64.3491 11.5091 66.0445 14.3526 66.089C16.0568 66.1157 17.7611 66.0178 19.4609 66.1246C20.9872 66.2225 21.6191 65.5906 21.6591 64.1222C21.6858 63.121 21.8149 62.1242 21.9083 61.0029H9.85827ZM100.216 61.0118C100.216 61.6837 100.194 62.1198 100.216 62.5558C100.346 64.9202 101.569 66.1009 103.882 66.0979C105.137 66.0979 106.392 66.1157 107.647 66.0979C110.597 66.0489 112.239 64.2156 112.115 61.0162H100.211L100.216 61.0118ZM62.1834 76.2123C67.5632 75.8785 72.7784 75.5537 77.9936 75.2333C79.0482 75.1666 80.1028 74.9085 79.64 73.5913C79.4398 73.0307 78.4786 72.3944 77.8467 72.381C73.1077 72.2831 68.3686 72.3187 63.6296 72.341C63.149 72.341 62.664 72.51 62.1834 72.6035V76.2123ZM42.5954 72.4477C41.7544 74.2766 42.1816 75.171 44.1796 75.2734C47.4991 75.4425 50.8098 75.7628 54.1293 75.9319C56.0116 76.0298 57.9072 75.9497 59.736 75.9497V72.4477H42.5954ZM10.152 60.2242H21.9973C22.1798 58.7646 22.3622 57.3318 22.5802 55.5875C20.0439 55.5875 17.7745 55.5786 15.5051 55.5875C12.7907 55.6008 10.8239 57.265 10.152 60.2242ZM111.919 60.3621C110.882 55.7966 106.112 54.208 99.5039 55.979C99.6062 57.0337 99.5929 58.155 99.8732 59.1963C99.9978 59.6635 100.696 60.2998 101.15 60.3132C104.675 60.4066 108.208 60.3621 111.923 60.3621H111.919ZM78.0959 49.7894C78.3184 49.5535 78.5409 49.3222 78.7589 49.0863C78.1983 48.49 77.6776 47.4132 77.0769 47.3687C72.5203 47.0083 67.9504 46.7991 63.3804 46.7057C62.9087 46.6968 62.13 47.6935 62.0277 48.312C61.9609 48.7259 62.8242 49.7182 63.2914 49.7271C68.2263 49.8339 73.1611 49.7938 78.0959 49.7938V49.7894ZM59.8829 46.4787C54.3963 46.7546 49.1811 47.0172 43.828 47.2841V49.6514H59.8829V46.4787ZM108.31 67.2281C108.261 67.059 108.208 66.89 108.159 66.7209H100.616C100.821 68.0069 100.999 69.106 101.239 70.6144C103.851 69.364 106.081 68.2961 108.31 67.2281ZM13.912 66.712L13.7474 67.2682C16.0168 68.3272 18.2862 69.3863 20.8226 70.5699C21.0673 69.0081 21.232 67.949 21.4233 66.712H13.912ZM22.954 51.3157C20.2263 52.4459 17.7567 53.4649 15.2915 54.4839L15.425 55.0624C16.9423 55.0624 18.4597 55.0624 19.9816 55.0624C21.9424 55.0624 22.9333 53.8135 22.954 51.3157ZM93.2653 72.8616L93.332 72.4789H81.6869C81.7803 73.271 81.856 73.8895 81.9628 74.8017C85.8653 74.1342 89.563 73.4979 93.2608 72.866L93.2653 72.8616ZM99.3259 51.4269L98.6095 52.0543C99.1479 53.0511 99.5484 54.7732 100.251 54.9111C102.267 55.3027 104.403 55.049 106.495 55.049L106.628 54.4483C104.194 53.4427 101.755 52.4326 99.3214 51.4269H99.3259ZM28.8189 72.4611L28.7788 72.8527C32.4454 73.489 36.1121 74.1253 40.0546 74.8106L40.2192 72.4611H28.8233H28.8189ZM91.0893 49.7894L91.1338 49.3088C87.6274 48.7748 84.1165 48.2409 80.61 47.7069L80.1295 48.4767C80.61 48.9128 81.0817 49.7137 81.5801 49.7315C84.7484 49.8472 87.9211 49.7894 91.0893 49.7894ZM31.066 49.2866L31.0972 49.7938C34.1275 49.7938 37.1578 49.7627 40.1881 49.8072C41.7411 49.8294 41.8968 49.1308 41.345 47.698C37.8875 48.232 34.4746 48.7615 31.066 49.291V49.2866Z" fill="black"/>
<circle cx="27.1437" cy="10.2384" r="10.2345" fill="#EBE328"/>
</svg>
