<svg width="109" height="93" viewBox="0 0 109 93" fill="none" xmlns="http://www.w3.org/2000/svg">
<path d="M86.6161 93C82.1889 93 77.8612 91.6932 74.1802 89.2449C70.4992 86.7967 67.6302 83.3168 65.936 79.2455C64.2418 75.1741 63.7986 70.6941 64.6622 66.372C65.5259 62.0498 67.6578 58.0797 70.7882 54.9636C73.9187 51.8475 77.9071 49.7255 82.2492 48.8657C86.5912 48.006 91.0919 48.4473 95.182 50.1337C99.2722 51.8201 102.768 54.6759 105.228 58.34C107.687 62.0042 109 66.312 109 70.7188C108.994 76.6262 106.633 82.2898 102.437 86.4669C98.2404 90.6441 92.5507 92.9936 86.6161 93ZM86.6161 56.1876C83.7288 56.1876 80.9064 57.0398 78.5057 58.6365C76.1051 60.2333 74.234 62.5027 73.1291 65.158C72.0242 67.8132 71.7351 70.7349 72.2984 73.5537C72.8616 76.3725 74.252 78.9617 76.2936 80.9939C78.3352 83.0262 80.9363 84.4101 83.7681 84.9708C86.5999 85.5315 89.5351 85.2437 92.2026 84.1439C94.87 83.0441 97.15 81.1816 98.754 78.7919C100.358 76.4023 101.214 73.5928 101.214 70.7188C101.21 66.8663 99.6703 63.1728 96.9336 60.4486C94.1969 57.7245 90.4864 56.1921 86.6161 56.1876ZM22.3839 93C17.9568 93 13.6291 91.6932 9.94809 89.2449C6.26708 86.7967 3.39807 83.3168 1.70388 79.2455C0.0096986 75.1741 -0.433578 70.6941 0.430111 66.372C1.2938 62.0498 3.42566 58.0797 6.55611 54.9636C9.68656 51.8475 13.675 49.7255 18.017 48.8657C22.3591 48.006 26.8598 48.4473 30.9499 50.1337C35.04 51.8201 38.5359 54.6759 40.9955 58.34C43.4551 62.0042 44.7679 66.312 44.7679 70.7188C44.7614 76.6262 42.4011 82.2898 38.2047 86.4669C34.0082 90.6441 28.3185 92.9936 22.3839 93ZM22.3839 56.1876C19.4967 56.1876 16.6743 57.0398 14.2736 58.6365C11.8729 60.2333 10.0019 62.5027 8.89695 65.158C7.79204 67.8132 7.50295 70.7349 8.06623 73.5537C8.6295 76.3725 10.0198 78.9617 12.0614 80.9939C14.103 83.0262 16.7042 84.4101 19.536 84.9708C22.3677 85.5315 25.303 85.2437 27.9704 84.1439C30.6379 83.0441 32.9178 81.1816 34.5219 78.7919C36.126 76.4023 36.9822 73.5928 36.9822 70.7188C36.9776 66.8663 35.4382 63.1728 32.7015 60.4486C29.9647 57.7245 26.2542 56.1921 22.3839 56.1876ZM70.0714 15.5002C71.0969 15.5037 72.1129 15.3049 73.0607 14.9152C74.0085 14.5254 74.8693 13.9525 75.5933 13.2296C76.3173 12.5067 76.8902 11.6481 77.2787 10.7034C77.6673 9.75873 77.8639 8.74677 77.8571 7.726C77.8685 6.71035 77.6763 5.70263 77.2918 4.76178C76.9073 3.82093 76.3382 2.96583 75.6178 2.24648C74.8974 1.52714 74.0402 0.957979 73.0962 0.572293C72.1522 0.186606 71.1405 -0.00786767 70.1201 0.00024367C69.0977 -0.00293679 68.0846 0.194372 67.1388 0.580907C66.1929 0.967441 65.3329 1.53563 64.6076 2.25303C63.8824 2.97044 63.3062 3.82301 62.912 4.76206C62.5178 5.70111 62.3132 6.70826 62.31 7.726C62.3069 8.74375 62.5051 9.75215 62.8934 10.6936C63.2817 11.6351 63.8525 12.4913 64.5732 13.2132C65.2939 13.9351 66.1504 14.5086 67.0938 14.901C68.0372 15.2934 69.049 15.497 70.0714 15.5002Z" fill="#474747"/>
<path d="M81.9567 30.8722H71.213C71.0367 30.8722 70.8637 30.8249 70.7121 30.7352C70.5605 30.6455 70.4358 30.5168 70.3512 30.3624L62.5585 16.1064C62.0095 15.047 61.2182 14.1315 60.2488 13.4341C59.2795 12.7366 58.1592 12.2768 56.9787 12.0919C55.7982 11.9069 54.5906 12.0021 53.4538 12.3695C52.317 12.737 51.2828 13.3665 50.435 14.2071L33.2833 31.4604C31.8424 32.9284 31.0245 34.8949 31 36.95C31 41.2143 34.0935 42.7338 35.542 43.5915C42.5392 47.6157 47.4667 50.559 50.1698 52.1936C50.3135 52.281 50.4324 52.4037 50.5149 52.55C50.5975 52.6964 50.641 52.8614 50.6412 53.0293V69.9689C50.6412 72.079 52.2665 73.8901 54.3804 73.9955C54.9112 74.021 55.4415 73.9388 55.9395 73.7538C56.4375 73.5688 56.8927 73.2849 57.2776 72.9193C57.6625 72.5536 57.9691 72.1138 58.1788 71.6265C58.3885 71.1392 58.497 70.6145 58.4977 70.0841V49.0077C58.4981 48.3852 58.35 47.7716 58.0656 47.2176C57.7813 46.6636 57.3689 46.1851 56.8626 45.8217L47.7785 39.3003C47.6645 39.2188 47.5693 39.114 47.4992 38.9927C47.4292 38.8715 47.386 38.7367 47.3725 38.5974C47.359 38.4581 47.3755 38.3175 47.421 38.1851C47.4665 38.0527 47.5398 37.9316 47.6361 37.8298L57.9478 26.853C58.0535 26.74 58.1845 26.6536 58.33 26.6009C58.4756 26.5481 58.6315 26.5304 58.7852 26.5493C58.9389 26.5682 59.086 26.6231 59.2144 26.7095C59.3427 26.7959 59.4488 26.9114 59.524 27.0466L64.8811 36.6976C65.2216 37.3094 65.7199 37.8191 66.3243 38.1737C66.9287 38.5284 67.6172 38.7151 68.3183 38.7146H82.0672C82.5994 38.7152 83.1261 38.6078 83.6155 38.3991C84.1048 38.1903 84.5466 37.8845 84.9139 37.5002C85.2813 37.1158 85.5666 36.661 85.7525 36.1632C85.9384 35.6655 86.0211 35.1352 85.9954 34.6047C85.8923 32.4946 84.0706 30.8722 81.9567 30.8722Z" fill="#474747"/>
</svg>
