<svg width="180" height="181" viewBox="0 0 180 181" fill="none" xmlns="http://www.w3.org/2000/svg">
<path d="M112.7 102.309L25.6074 178.018C25.6074 178.018 51.7702 186.472 94.2123 171.528C137.751 156.194 174.756 115.919 179.036 65.1968C182.751 21.1446 174.558 16.0634 172.015 12.8108C169.533 9.63321 165.345 9.22852 165.345 9.22852L112.7 102.309Z" fill="#6D2A19"/>
<path d="M34.9735 43.0134C-1.54467 82.3591 -0.0674931 128.989 0.739623 146.511C1.27262 158.203 3.32848 164.138 9.10012 170.389C14.491 176.219 25.745 181.435 48.664 176.654C72.5272 171.678 108.847 155.25 141.741 118.377C176.63 79.2564 179.493 17.5474 170.051 10.9073C160.609 4.26725 141.467 -0.769002 122.873 0.295206C104.279 1.35941 69.2226 6.12587 34.9735 43.0134Z" fill="#9C3C25"/>
<path d="M8.84085 170.164C8.39922 170.449 4.85096 168.185 4.69867 164.048C4.42456 157.064 9.22157 136.994 16.0135 121.66C22.3943 107.226 26.9629 100.766 26.9629 100.766C26.9629 100.766 22.6532 96.6286 22.8055 88.9244C22.9578 81.2201 25.6685 66.5011 55.4708 38.1572C87.0245 8.10454 97.6693 11.2372 102.725 11.3571C106.883 11.462 113.385 13.8902 113.872 14.0251C113.872 14.0251 123.878 7.59492 134.172 5.46651C144.467 3.33809 154.822 4.52221 156.513 4.68709C158.218 4.85196 161.142 5.79626 163.472 6.89045C165.695 7.92468 168.33 9.75332 168.33 9.75332C168.33 9.75332 150.056 7.51998 138.162 10.5177C126.269 13.5155 118.807 17.8923 118.807 17.8923C118.807 17.8923 122.157 23.7079 121.852 27.7399C121.411 33.4507 117.649 38.1572 106.913 49.0091C97.5474 58.482 63.9379 95.7743 59.7805 99.9562C54.4201 105.382 47.7499 107.945 41.7955 107.376C35.8564 106.806 32.232 104.528 32.232 104.528C32.232 104.528 25.6989 115.515 20.9171 127.086C16.1354 138.657 12.9373 150.499 10.181 163.914C9.49568 167.301 9.6632 169.624 8.84085 170.164Z" fill="#6D291A"/>
<path d="M33.1456 99.1317C37.0289 101.395 47.4301 102.579 53.3387 97.8876C59.2474 93.2111 67.0445 82.3142 84.7249 63.0236C98.1261 48.4245 113.522 36.0287 114.253 28.939C115.213 19.5559 106.624 16.1835 97.3951 16.8879C88.1818 17.5924 70.745 30.0781 56.3388 44.8271C41.9325 59.5762 30.6938 73.6057 28.3943 83.5283C26.978 89.6288 28.44 96.3738 33.1456 99.1317Z" fill="#9C3C25"/>
<path d="M96.1314 4.47716C96.1314 4.47716 107.781 6.54562 119.736 14.3398C131.69 22.134 144.726 32.2964 152.706 40.915C157.229 45.8014 169.838 61.7045 170.569 61.7045C171.3 61.7045 172.746 52.2016 173.188 48.6643C173.615 45.1269 174.345 41.7094 173.904 40.4354C173.477 39.1613 165.056 28.0846 151.426 16.1834C135.939 2.66351 121.563 0.265293 121.563 0.265293C121.563 0.265293 117.832 0.130394 108.436 1.3295C101.629 2.21384 96.1314 4.47716 96.1314 4.47716ZM5.12528 97.4379C5.12528 97.4379 12.8462 99.2666 26.0951 108.335C41.0191 118.557 50.2933 126.621 61.532 137.968C72.2073 148.745 83.6744 163.074 83.6744 163.928C83.6744 164.783 79.1363 166.566 72.4814 169.444C69.2225 170.853 63.0244 173.491 62.0041 173.057C60.999 172.637 52.8213 160.421 40.0597 148.31C31.9885 140.651 23.2016 132.437 11.9629 125.617C4.77503 121.27 1.12016 120.431 1.12016 120.431C1.12016 120.431 1.08971 115.275 2.59734 107.465C3.95268 100.556 5.12528 97.4379 5.12528 97.4379Z" fill="#F2F0EE"/>
<path d="M73.5168 44.003C54.3592 61.8696 32.628 90.1686 31.4249 91.8923C29.3386 94.8601 29.2929 97.2133 31.9884 98.8621C34.6838 100.511 36.6331 97.8728 38.3387 95.7144C40.227 93.3312 57.3744 68.9144 75.2833 51.947C95.9942 32.3566 110.218 23.1235 111.954 21.4298C113.233 20.1707 116.568 18.7318 113.827 16.1837C111.741 14.2351 107.629 16.7532 105.908 18.0273C104.172 19.3014 93.786 25.102 73.5168 44.003Z" fill="#FDFFFF"/>
<path d="M93.3752 14.3996C90.6493 16.4831 90.9081 20.2902 94.1671 22.8084C96.6493 24.7269 101.949 28.8489 104.477 31.1272C107.553 33.9001 110.492 34.4247 112.761 32.686C115.137 30.8724 116.37 26.3607 112.152 22.1938C107.964 18.0719 105.543 15.5987 101.142 13.875C98.2788 12.7508 95.3244 12.9307 93.3752 14.3996ZM89.8726 24.667C87.3599 23.7077 83.1263 21.8341 79.8065 24.8019C76.4867 27.7697 78.238 31.5918 81.2228 33.7202C84.2076 35.8486 88.502 40.0455 92.766 43.0283C95.2026 44.722 99.4057 46.116 102.391 42.8784C104.858 40.1954 102.756 35.7587 100.898 33.5254C98.7357 30.9023 94.2889 26.3457 89.8726 24.667ZM78.2227 36.9428C74.9638 35.1292 69.4967 33.3905 65.7962 37.1227C61.7454 41.2147 64.0297 44.2274 68.0043 46.6556C71.3394 48.6941 78.1314 54.4498 80.3395 55.9337C83.9487 58.3619 88.5477 57.2977 90.299 54.6297C93.2077 50.208 89.233 45.0668 86.2482 42.6686C83.3395 40.3303 79.5476 37.6923 78.2227 36.9428ZM53.0346 49.4285C50.5828 52.2314 50.2173 55.2442 54.0093 59.3212C57.8012 63.3981 64.4408 68.1796 68.2785 69.4686C72.6795 70.9375 74.7963 69.2888 76.3801 66.8606C77.9638 64.4324 76.7151 58.9614 72.6643 55.4091C70.1059 53.1608 65.5373 49.1737 59.9027 47.9596C56.8418 47.3001 54.6184 47.6149 53.0346 49.4285ZM46.9584 61.4946C44.8416 60.91 42.1157 61.7494 40.532 63.6679C38.9482 65.5715 38.1867 69.3487 40.0903 71.4771C42.0244 73.6505 43.197 74.4449 46.4406 77.2029C49.6996 79.9758 52.9585 83.3633 56.8418 83.798C59.5677 84.0977 62.0347 82.7637 63.1921 81.025C64.3343 79.2863 64.2124 75.4192 61.0753 72.0917C58.852 69.7234 53.2021 63.2183 46.9584 61.4946ZM29.278 77.7874C26.0648 81.9094 27.8313 87.5002 35.7654 92.4315C42.268 96.4935 47.994 99.3414 51.8925 94.6798C55.5473 90.3031 51.9839 85.8364 43.7909 80.2906C36.1157 75.1044 32.1867 74.0702 29.278 77.7874Z" fill="#FDFFFF"/>
</svg>
