<svg width="223" height="222" viewBox="0 0 223 222" fill="none" xmlns="http://www.w3.org/2000/svg">
<path d="M111.442 0.5C50.3124 0.5 0.578125 50.0709 0.578125 111C0.578125 171.929 50.3124 221.5 111.442 221.5C172.572 221.5 222.307 171.929 222.307 111C222.307 50.0709 172.572 0.5 111.442 0.5ZM187.661 162H163.559C162.812 161.998 162.079 161.801 161.433 161.428C160.786 161.055 160.25 160.52 159.876 159.875L151.273 145.17C150.707 144.209 150.543 143.064 150.815 141.982L158.736 110.15C158.894 109.509 159.201 108.913 159.631 108.41C160.062 107.908 160.603 107.512 161.214 107.255L176.191 100.933C176.923 100.623 177.727 100.524 178.513 100.646C179.298 100.768 180.034 101.107 180.637 101.623L202.825 120.653C203.372 121.122 203.791 121.722 204.042 122.397C204.292 123.071 204.367 123.798 204.259 124.51C202.421 137.076 198.017 149.132 191.318 159.933C190.939 160.563 190.404 161.085 189.763 161.447C189.122 161.809 188.398 162 187.661 162ZM46.6934 100.975L61.6707 107.297C62.2812 107.555 62.823 107.95 63.2533 108.453C63.6835 108.955 63.9902 109.551 64.1492 110.192L72.0695 142.025C72.3421 143.106 72.1775 144.251 71.6112 145.212L63.0085 159.875C62.6351 160.52 62.0984 161.055 61.452 161.428C60.8056 161.801 60.0723 161.998 59.3255 162H35.2232C34.4942 162 33.7773 161.815 33.1409 161.46C32.5045 161.106 31.9699 160.595 31.5881 159.976C24.8891 149.174 20.4845 137.118 18.6469 124.552C18.5388 123.841 18.6137 123.114 18.8645 122.439C19.1152 121.765 19.5337 121.165 20.0806 120.695L42.2695 101.666C42.8701 101.153 43.6019 100.817 44.3831 100.695C45.1644 100.573 45.9642 100.67 46.6934 100.975ZM183.643 54.6291L174.011 81.9247C173.818 82.4825 173.51 82.994 173.107 83.4267C172.704 83.8593 172.215 84.2036 171.671 84.4375L155.905 91.0941C155.182 91.3991 154.388 91.4991 153.611 91.3828C152.834 91.2666 152.104 90.9387 151.503 90.4353L121.516 65.3656C121.037 64.9705 120.65 64.4757 120.383 63.9159C120.116 63.3561 119.975 62.7448 119.97 62.125V44.2856C119.971 43.5866 120.144 42.8986 120.475 42.2823C120.806 41.6661 121.284 41.1407 121.868 40.7528L144.696 25.5909C145.292 25.1946 145.978 24.9542 146.692 24.892C147.405 24.8298 148.123 24.9478 148.779 25.235C161.915 30.9452 173.572 39.5643 182.864 50.4375C183.353 51.006 183.682 51.693 183.819 52.429C183.956 53.165 183.895 53.924 183.643 54.6291ZM78.1831 25.5909L101.017 40.7528C101.6 41.1407 102.079 41.6661 102.41 42.2823C102.741 42.8986 102.914 43.5866 102.914 44.2856V62.125C102.914 62.7458 102.778 63.3591 102.514 63.9218C102.251 64.4844 101.867 64.9827 101.39 65.3816L71.4033 90.4513C70.8016 90.9546 70.072 91.2825 69.2951 91.3988C68.5182 91.515 67.7242 91.4151 67.0007 91.11L51.2132 84.4375C50.6661 84.2066 50.1734 83.8642 49.7668 83.4324C49.3602 83.0006 49.0486 82.4889 48.852 81.93L39.2207 54.6344C38.9704 53.9267 38.9125 53.1657 39.053 52.4285C39.1934 51.6914 39.5271 51.0044 40.0202 50.4375C49.3184 39.5534 60.985 30.9266 74.1323 25.2137C74.7855 24.9353 75.4983 24.8239 76.2057 24.8898C76.9131 24.9556 77.5928 25.1967 78.1831 25.5909ZM87.4093 199.554L76.8932 173.156C76.6527 172.556 76.5527 171.909 76.6007 171.265C76.6488 170.621 76.8436 169.996 77.1704 169.438L85.256 155.625C85.6294 154.98 86.1662 154.445 86.8125 154.072C87.4589 153.699 88.1922 153.502 88.939 153.5H133.946C134.692 153.502 135.426 153.699 136.072 154.072C136.718 154.445 137.255 154.98 137.629 155.625L145.72 169.438C146.047 169.995 146.243 170.62 146.292 171.264C146.341 171.909 146.242 172.556 146.002 173.156L135.561 199.543C135.305 200.189 134.895 200.762 134.367 201.213C133.838 201.664 133.207 201.979 132.528 202.131C118.672 205.3 104.276 205.3 90.4208 202.131C89.7468 201.977 89.1206 201.662 88.5959 201.213C88.0713 200.764 87.6641 200.195 87.4093 199.554Z" fill="#545454"/>
</svg>
