<svg width="332" height="96" viewBox="0 0 332 96" fill="none" xmlns="http://www.w3.org/2000/svg">
<rect width="332" height="96" rx="9" fill="#030708"/>
<path d="M315.111 95.1111H17.8889C11.2311 95.1111 6 89.88 6 83.2222V11.8889C6 5.23111 11.2311 0 17.8889 0H315.111C321.769 0 327 5.23111 327 11.8889V83.2222C327 89.88 321.769 95.1111 315.111 95.1111Z" fill="black"/>
<path d="M116.062 24.3871C116.062 25.9355 115.66 27.2903 114.655 28.2581C113.448 29.4194 112.041 30 110.232 30C108.423 30 107.015 29.4194 105.809 28.2581C104.603 27.0968 104 25.7419 104 24C104 22.2581 104.603 20.9032 105.809 19.7419C107.015 18.5806 108.423 18 110.232 18C111.036 18 111.84 18.1935 112.644 18.5806C113.448 18.9677 114.052 19.3548 114.454 19.9355L113.448 20.9032C112.644 19.9355 111.639 19.5484 110.232 19.5484C109.026 19.5484 107.82 19.9355 107.015 20.9032C106.01 21.6774 105.608 22.8387 105.608 24.1935C105.608 25.5484 106.01 26.7097 107.015 27.4839C108.021 28.2581 109.026 28.8387 110.232 28.8387C111.639 28.8387 112.644 28.4516 113.649 27.4839C114.253 26.9032 114.655 26.129 114.655 25.1613H110.232V23.6129H116.062V24.3871ZM125.309 19.5484H119.881V23.2258H124.907V24.5806H119.881V28.2581H125.309V29.8065H118.273V18.1935H125.309V19.5484ZM131.943 29.8065H130.335V19.5484H126.918V18.1935H135.361V19.5484H131.943V29.8065ZM141.191 29.8065V18.1935H142.799V29.8065H141.191ZM149.634 29.8065H148.026V19.5484H144.608V18.1935H152.851V19.5484H149.433V29.8065H149.634ZM168.732 28.2581C167.526 29.4194 166.119 30 164.309 30C162.5 30 161.093 29.4194 159.887 28.2581C158.68 27.0968 158.077 25.7419 158.077 24C158.077 22.2581 158.68 20.9032 159.887 19.7419C161.093 18.5806 162.5 18 164.309 18C166.119 18 167.526 18.5806 168.732 19.7419C169.938 20.9032 170.541 22.2581 170.541 24C170.541 25.7419 169.938 27.0968 168.732 28.2581ZM161.093 27.2903C161.897 28.0645 163.103 28.6452 164.309 28.6452C165.515 28.6452 166.722 28.2581 167.526 27.2903C168.33 26.5161 168.933 25.3548 168.933 24C168.933 22.6452 168.531 21.4839 167.526 20.7097C166.722 19.9355 165.515 19.3548 164.309 19.3548C163.103 19.3548 161.897 19.7419 161.093 20.7097C160.289 21.4839 159.686 22.6452 159.686 24C159.686 25.3548 160.088 26.5161 161.093 27.2903ZM172.753 29.8065V18.1935H174.562L180.392 27.2903V18.1935H182V29.8065H180.392L174.16 20.3226V29.8065H172.753Z" fill="white" stroke="white" stroke-width="1.18519" stroke-miterlimit="10"/>
<path d="M163.043 51.2899C157.794 51.2899 153.639 55.2308 153.639 60.7041C153.639 65.9586 157.794 70.1183 163.043 70.1183C168.291 70.1183 172.446 66.1775 172.446 60.7041C172.446 55.0118 168.291 51.2899 163.043 51.2899ZM163.043 66.1775C160.2 66.1775 157.794 63.7692 157.794 60.4852C157.794 57.2012 160.2 54.7929 163.043 54.7929C165.885 54.7929 168.291 56.9822 168.291 60.4852C168.291 63.7692 165.885 66.1775 163.043 66.1775ZM142.706 51.2899C137.457 51.2899 133.303 55.2308 133.303 60.7041C133.303 65.9586 137.457 70.1183 142.706 70.1183C147.954 70.1183 152.109 66.1775 152.109 60.7041C152.109 55.0118 147.954 51.2899 142.706 51.2899ZM142.706 66.1775C139.863 66.1775 137.457 63.7692 137.457 60.4852C137.457 57.2012 139.863 54.7929 142.706 54.7929C145.548 54.7929 147.954 56.9822 147.954 60.4852C147.954 63.7692 145.548 66.1775 142.706 66.1775ZM118.433 54.1361V58.0769H127.836C127.617 60.2663 126.742 62.0178 125.649 63.1124C124.337 64.426 122.15 65.9586 118.433 65.9586C112.528 65.9586 108.155 61.3609 108.155 55.4497C108.155 49.5385 112.747 44.9408 118.433 44.9408C121.494 44.9408 123.9 46.2544 125.649 47.787L128.492 44.9408C126.086 42.7515 123.025 41 118.651 41C110.779 41 104 47.568 104 55.4497C104 63.3314 110.779 69.8994 118.651 69.8994C123.025 69.8994 126.086 68.5858 128.71 65.7396C131.335 63.1124 132.209 59.3905 132.209 56.5444C132.209 55.6686 132.209 54.7929 131.991 54.1361H118.433ZM217.712 57.2012C216.837 55.0118 214.65 51.2899 209.839 51.2899C205.028 51.2899 201.092 55.0118 201.092 60.7041C201.092 65.9586 205.028 70.1183 210.277 70.1183C214.431 70.1183 217.056 67.4911 217.93 65.9586L214.869 63.7692C213.775 65.3018 212.463 66.3965 210.277 66.3965C208.09 66.3965 206.778 65.5207 205.684 63.5503L218.149 58.2959L217.712 57.2012ZM205.028 60.2663C205.028 56.7633 207.871 54.7929 209.839 54.7929C211.37 54.7929 212.901 55.6686 213.338 56.7633L205.028 60.2663ZM194.751 69.2426H198.905V41.8757H194.751V69.2426ZM188.19 53.2604C187.097 52.1657 185.348 51.071 183.161 51.071C178.569 51.071 174.195 55.2308 174.195 60.4852C174.195 65.7396 178.35 69.6805 183.161 69.6805C185.348 69.6805 187.097 68.5858 187.972 67.4911H188.19V68.8047C188.19 72.3077 186.222 74.2781 183.161 74.2781C180.755 74.2781 179.006 72.5266 178.569 70.9941L175.07 72.5266C176.163 74.9349 178.787 78 183.379 78C188.19 78 192.126 75.1538 192.126 68.3669V51.7278H188.19V53.2604ZM183.379 66.1775C180.537 66.1775 178.131 63.7692 178.131 60.4852C178.131 57.2012 180.537 54.7929 183.379 54.7929C186.222 54.7929 188.409 57.2012 188.409 60.4852C188.409 63.7692 186.222 66.1775 183.379 66.1775ZM236.736 41.8757H226.896V69.2426H231.051V58.9527H236.736C241.329 58.9527 245.702 55.6686 245.702 50.4142C245.702 45.1598 241.329 41.8757 236.736 41.8757ZM236.955 55.0118H231.051V45.5976H236.955C240.017 45.5976 241.766 48.2248 241.766 50.1953C241.547 52.6035 239.798 55.0118 236.955 55.0118ZM262.103 51.071C259.041 51.071 255.98 52.3846 254.887 55.2308L258.604 56.7633C259.479 55.2308 260.791 54.7929 262.322 54.7929C264.508 54.7929 266.476 56.1065 266.695 58.2959V58.5148C266.039 58.0769 264.29 57.4201 262.54 57.4201C258.604 57.4201 254.668 59.6095 254.668 63.5503C254.668 67.2722 257.948 69.6805 261.447 69.6805C264.29 69.6805 265.602 68.3669 266.695 67.0533H266.914V69.2426H270.85V58.7337C270.413 53.9172 266.695 51.071 262.103 51.071ZM261.665 66.1775C260.353 66.1775 258.385 65.5207 258.385 63.7692C258.385 61.5799 260.791 60.9231 262.759 60.9231C264.508 60.9231 265.383 61.3609 266.476 61.7988C266.039 64.426 263.852 66.1775 261.665 66.1775ZM284.626 51.7278L280.034 63.5503H279.816L275.005 51.7278H270.631L277.848 68.3669L273.693 77.5621H277.848L289 51.7278H284.626ZM247.889 69.2426H252.044V41.8757H247.889V69.2426Z" fill="white"/>
<path d="M30.7289 17.8333C30.0156 18.5467 29.7778 19.7356 29.7778 21.1622V73.7111C29.7778 75.1378 30.2534 76.3267 30.9667 77.04L31.2045 77.2778L60.6889 47.7933V47.3178L30.7289 17.8333Z" fill="url(#paint0_linear_1228_7769)"/>
<path d="M70.2001 57.78L60.4512 48.0311V47.3178L70.2001 37.5689L70.4378 37.8067L82.089 44.4644C85.4178 46.3667 85.4178 49.4578 82.089 51.36L70.2001 57.78Z" fill="url(#paint1_linear_1228_7769)"/>
<path d="M70.4379 57.5422L60.4512 47.5555L30.729 77.2778C31.9179 78.4667 33.5823 78.4666 35.7223 77.5155L70.4379 57.5422Z" fill="url(#paint2_linear_1228_7769)"/>
<path d="M70.4379 37.5689L35.7223 17.8333C33.5823 16.6444 31.9179 16.8822 30.729 18.0711L60.4512 47.5556L70.4379 37.5689Z" fill="url(#paint3_linear_1228_7769)"/>
<path opacity="0.2" d="M70.2001 57.3044L35.7223 76.8022C33.8201 77.9911 32.1557 77.7533 30.9668 76.8022L30.729 77.04L30.9668 77.2778C32.1557 78.2289 33.8201 78.4667 35.7223 77.2778L70.2001 57.3044Z" fill="black"/>
<path opacity="0.12" d="M30.7289 76.8022C30.0156 76.0889 29.7778 74.9 29.7778 73.4733V73.7111C29.7778 75.1378 30.2534 76.3267 30.9667 77.04V76.8022H30.7289ZM82.0889 50.6467L70.2001 57.3044L70.4378 57.5422L82.0889 50.8844C83.7534 49.9333 84.4667 48.7444 84.4667 47.5555C84.4667 48.7444 83.5156 49.6955 82.0889 50.6467Z" fill="black"/>
<path opacity="0.25" d="M35.7223 18.0711L82.0889 44.4645C83.5156 45.4156 84.4667 46.3667 84.4667 47.5556C84.4667 46.3667 83.7534 45.1778 82.0889 44.2267L35.7223 17.8333C32.3934 15.9311 29.7778 17.3578 29.7778 21.1622V21.4C29.7778 17.8333 32.3934 16.1689 35.7223 18.0711Z" fill="white"/>
<defs>
<linearGradient id="paint0_linear_1228_7769" x1="57.8356" y1="20.7105" x2="17.9294" y2="60.6143" gradientUnits="userSpaceOnUse">
<stop stop-color="#00A0FF"/>
<stop offset="0.007" stop-color="#00A1FF"/>
<stop offset="0.26" stop-color="#00BEFF"/>
<stop offset="0.512" stop-color="#00D2FF"/>
<stop offset="0.76" stop-color="#00DFFF"/>
<stop offset="1" stop-color="#00E3FF"/>
</linearGradient>
<linearGradient id="paint1_linear_1228_7769" x1="86.4498" y1="47.5579" x2="28.9147" y2="47.5579" gradientUnits="userSpaceOnUse">
<stop stop-color="#FFE000"/>
<stop offset="0.409" stop-color="#FFBD00"/>
<stop offset="0.775" stop-color="#FFA500"/>
<stop offset="1" stop-color="#FF9C00"/>
</linearGradient>
<linearGradient id="paint2_linear_1228_7769" x1="65.0332" y1="53.0149" x2="10.9197" y2="107.128" gradientUnits="userSpaceOnUse">
<stop stop-color="#FF3A44"/>
<stop offset="1" stop-color="#C31162"/>
</linearGradient>
<linearGradient id="paint3_linear_1228_7769" x1="23.3508" y1="0.418489" x2="47.5161" y2="24.5838" gradientUnits="userSpaceOnUse">
<stop stop-color="#32A071"/>
<stop offset="0.069" stop-color="#2DA771"/>
<stop offset="0.476" stop-color="#15CF74"/>
<stop offset="0.801" stop-color="#06E775"/>
<stop offset="1" stop-color="#00F076"/>
</linearGradient>
</defs>
</svg>
