<svg width="101" height="103" viewBox="0 0 101 103" fill="none" xmlns="http://www.w3.org/2000/svg">
<path d="M56.5 23.7396C61.0833 23.7396 64.8333 19.8958 64.8333 15.1979C64.8333 10.5 61.0833 6.65625 56.5 6.65625C51.9167 6.65625 48.1667 10.5 48.1667 15.1979C48.1667 19.8958 51.9167 23.7396 56.5 23.7396ZM73.1667 46.2896C68.0417 44.7094 63.9167 41.2927 61.5 36.9792L57.3333 30.1458C55.625 27.3698 52.7083 25.875 49.6667 25.875C46.4167 25.875 43.0417 28.0104 42.25 32.025C41.4583 36.0396 29.4167 98.4792 29.4167 98.4792H38.1667L45.6667 64.3125L54.4167 72.8542V98.4792H62.75V66.4479L54 57.9062L56.5 45.0938C60.6667 50.0052 66.5417 53.6781 73.1667 55.0875V98.4792H79.4167V38.6875H73.1667V46.2896ZM31.2083 56.326L22.375 54.575C21.2924 54.359 20.3378 53.7115 19.7206 52.7746C19.1034 51.8377 18.8742 50.6881 19.0833 49.5781L22.25 32.7938C22.6735 30.5756 23.9374 28.6199 25.7649 27.3551C27.5924 26.0903 29.8345 25.6195 32 26.0458L36.8333 27.0281L31.2083 56.326Z" fill="#545454"/>
</svg>
