<svg width="87" height="98" viewBox="0 0 87 98" fill="none" xmlns="http://www.w3.org/2000/svg">
<g clip-path="url(#clip0_33_48)">
<path d="M86.2502 8.125C83.8543 11.6323 78.998 18.4248 75.7301 23.484C66.5876 37.635 58.5855 40.9635 50.9859 44.154C43.3863 47.3444 26.0525 46.9408 17.7317 46.4669C9.411 45.9929 3.99162 44.8988 2.35047 47.5908C-2.68557 55.8594 0.884224 65.1435 8.16277 66.411C13.8601 67.4023 31.0286 65.5444 39.0666 64.7427C47.107 63.9383 55.895 61.2192 58.9113 59.9083C61.9277 58.6002 64.3714 57.525 65.1333 55.4558C65.8952 53.384 69.6279 47.8265 74.1967 39.4306C76.7746 34.6965 83.8543 25.8646 86.2502 21.6667V8.125Z" fill="#F4900C"/>
<path d="M16.7708 66.6006C23.9583 66.2918 33.6734 65.2816 39.0736 64.7427C44.5576 64.1956 50.3436 62.7602 54.4524 61.4845L53.4366 43.1112C52.6124 43.4687 51.793 43.8127 50.9833 44.1539C43.3837 47.3443 26.0546 46.9408 17.7363 46.4668C17.3985 46.4452 16.7708 46.4208 16.7708 46.3991V66.6006ZM40.7291 75.8333V86.6666C40.7291 89.6566 48.24 92.0833 57.4999 92.0833C66.7622 92.0833 74.2708 89.6566 74.2708 86.6666V75.8333H40.7291Z" fill="#31373D"/>
<path d="M57.4903 81.25C66.7526 81.25 74.2612 78.8248 74.2612 75.8333C74.2612 72.8418 66.7526 70.4166 57.4903 70.4166C48.228 70.4166 40.7195 72.8418 40.7195 75.8333C40.7195 78.8248 48.228 81.25 57.4903 81.25Z" fill="#66757F"/>
</g>
<defs>
<clipPath id="clip0_33_48">
<rect width="86.25" height="97.5" fill="white"/>
</clipPath>
</defs>
</svg>
