<svg width="36" height="56" viewBox="0 0 36 56" fill="none" xmlns="http://www.w3.org/2000/svg">
<path d="M28.8664 54.332L0.912493 29.7619C0.580696 29.4694 0.34512 29.1525 0.205766 28.8113C0.0664111 28.47 -0.00216014 28.1044 5.18433e-05 27.7144C5.18433e-05 27.3244 0.0697291 26.9588 0.209084 26.6175C0.348438 26.2763 0.582908 25.9594 0.912493 25.6669L28.8664 1.02375C29.6406 0.34125 30.6083 0 31.7696 0C32.9309 0 33.9263 0.365626 34.7558 1.09688C35.5853 1.82813 36 2.68125 36 3.65626C36 4.63126 35.5853 5.48438 34.7558 6.21564L10.3687 27.7144L34.7558 49.2132C35.53 49.8957 35.9171 50.7371 35.9171 51.7375C35.9171 52.7378 35.5023 53.6027 34.6728 54.332C33.8433 55.0632 32.8756 55.4288 31.7696 55.4288C30.6636 55.4288 29.6959 55.0632 28.8664 54.332Z" fill="#545454"/>
</svg>
