<svg width="16" height="21" viewBox="0 0 16 21" fill="none" xmlns="http://www.w3.org/2000/svg">
<path d="M8 10.8367C8.55 10.8367 9.021 10.6407 9.413 10.2487C9.80433 9.85734 10 9.38667 10 8.83667C10 8.28667 9.80433 7.81567 9.413 7.42367C9.021 7.03234 8.55 6.83667 8 6.83667C7.45 6.83667 6.97933 7.03234 6.588 7.42367C6.196 7.81567 6 8.28667 6 8.83667C6 9.38667 6.196 9.85734 6.588 10.2487C6.97933 10.6407 7.45 10.8367 8 10.8367ZM8 20.8367C5.31667 18.5533 3.31267 16.4323 1.988 14.4737C0.662667 12.5157 0 10.7033 0 9.03667C0 6.53667 0.804333 4.545 2.413 3.06167C4.021 1.57834 5.88333 0.83667 8 0.83667C10.1167 0.83667 11.979 1.57834 13.587 3.06167C15.1957 4.545 16 6.53667 16 9.03667C16 10.7033 15.3377 12.5157 14.013 14.4737C12.6877 16.4323 10.6833 18.5533 8 20.8367Z" fill="#7A7A7A"/>
</svg>
