<svg width="170" height="256" viewBox="0 0 170 256" fill="none" xmlns="http://www.w3.org/2000/svg">
<path d="M143.995 13.0001C78.9356 62.2283 -45.0432 124.807 59.2879 158.644" stroke="url(#paint0_linear_389_18)" stroke-width="18" stroke-linecap="square"/>
<path d="M155.852 16.9409C90.792 66.1691 -33.1868 128.748 71.1444 162.584" stroke="white" stroke-width="18" stroke-linecap="square"/>
<path d="M28.4306 242.285C92.2764 191.493 214.7 125.924 109.579 94.6293" stroke="url(#paint1_linear_389_18)" stroke-width="18" stroke-linecap="square"/>
<path d="M16.4818 238.634C80.3276 187.841 202.751 122.272 97.6298 90.9775" stroke="white" stroke-width="18" stroke-linecap="square"/>
<path d="M83.5542 106.465C88.6928 106.348 93.9897 108.651 97.6493 111.576C95.4304 113.507 93.979 115.567 92.7918 118.224C91.6045 120.882 91.4165 123.53 91.4795 126.425C91.6064 132.517 94.0033 136.979 98.4783 140.547C94.944 143.634 89.5279 146.429 84.3893 146.545C79.2508 146.661 73.9538 144.839 70.2942 141.914C72.5131 139.983 74.5449 137.282 75.7321 134.625C76.9194 131.967 77.1074 129.632 77.0444 126.737C76.9175 120.645 74.5206 115.87 70.0456 112.302C73.5799 109.215 78.4157 106.581 83.5542 106.465ZM104.526 126.04C104.623 130.689 103.088 134.995 100.425 138.463C98.5397 137.001 97.0089 135.15 95.9414 133.043C94.874 130.936 94.2961 128.625 94.2488 126.272C94.1457 121.323 96.3555 116.842 99.9117 113.814C102.815 117.265 104.44 121.571 104.526 126.04ZM63.4176 126.969C63.3207 122.32 64.8555 118.015 67.5183 114.546C69.4038 116.009 70.9346 117.859 72.0021 119.966C73.0695 122.073 73.6474 124.385 73.6947 126.737C73.7978 131.687 71.588 136.168 68.0319 139.195C65.1289 135.744 63.5036 131.438 63.4176 126.969Z" fill="url(#paint2_linear_389_18)"/>
<mask id="path-6-inside-1_389_18" fill="white">
<path d="M83.9948 135.862C86.5649 133.582 88.4793 131.502 89.7378 129.622C90.9963 127.742 91.6403 126.063 91.6699 124.587C91.7153 122.318 91.0335 120.447 89.6245 118.972C88.2154 117.497 86.4668 116.739 84.3785 116.696C82.2894 116.654 80.5113 117.342 79.0444 118.76C77.5775 120.178 76.8217 122.021 76.7771 124.288C76.7476 125.766 77.3239 127.469 78.5062 129.398C79.6884 131.327 81.5179 133.482 83.9948 135.862ZM83.9286 139.171C80.6554 136.254 78.2214 133.556 76.6263 131.078C75.0313 128.6 74.2542 126.321 74.295 124.239C74.3575 121.117 75.4055 118.65 77.4391 116.838C79.4726 115.026 81.8024 114.146 84.4285 114.199C87.0554 114.251 89.3485 115.224 91.3079 117.116C93.2673 119.008 94.2153 121.515 94.152 124.636C94.1103 126.717 93.2426 128.964 91.5488 131.377C89.8551 133.79 87.315 136.388 83.9286 139.171Z"/>
</mask>
<path d="M83.9948 135.862C86.5649 133.582 88.4793 131.502 89.7378 129.622C90.9963 127.742 91.6403 126.063 91.6699 124.587C91.7153 122.318 91.0335 120.447 89.6245 118.972C88.2154 117.497 86.4668 116.739 84.3785 116.696C82.2894 116.654 80.5113 117.342 79.0444 118.76C77.5775 120.178 76.8217 122.021 76.7771 124.288C76.7476 125.766 77.3239 127.469 78.5062 129.398C79.6884 131.327 81.5179 133.482 83.9948 135.862ZM83.9286 139.171C80.6554 136.254 78.2214 133.556 76.6263 131.078C75.0313 128.6 74.2542 126.321 74.295 124.239C74.3575 121.117 75.4055 118.65 77.4391 116.838C79.4726 115.026 81.8024 114.146 84.4285 114.199C87.0554 114.251 89.3485 115.224 91.3079 117.116C93.2673 119.008 94.2153 121.515 94.152 124.636C94.1103 126.717 93.2426 128.964 91.5488 131.377C89.8551 133.79 87.315 136.388 83.9286 139.171Z" fill="#146A3F"/>
<path d="M83.9948 135.862L81.916 138.025L83.9134 139.945L85.9858 138.107L83.9948 135.862ZM91.6699 124.587L94.6693 124.647L91.6699 124.587ZM84.3785 116.696L84.4397 113.697L84.4385 113.697L84.3785 116.696ZM76.7771 124.288L79.7765 124.348L79.7766 124.347L76.7771 124.288ZM83.9286 139.171L81.9323 141.411L83.8495 143.12L85.8335 141.489L83.9286 139.171ZM74.295 124.239L71.2956 124.179L71.2956 124.18L74.295 124.239ZM94.152 124.636L91.1526 124.575L91.1526 124.576L94.152 124.636ZM85.9858 138.107C88.6592 135.735 90.777 133.463 92.2308 131.291L87.2447 127.953C86.1815 129.541 84.4707 131.43 82.0038 133.618L85.9858 138.107ZM92.2308 131.291C93.6512 129.169 94.6236 126.926 94.6693 124.647L88.6705 124.527C88.657 125.201 88.3414 126.315 87.2447 127.953L92.2308 131.291ZM94.6693 124.647C94.7286 121.683 93.8141 119.014 91.7935 116.9L87.4554 121.045C88.2529 121.879 88.702 122.953 88.6705 124.527L94.6693 124.647ZM91.7935 116.9C89.8184 114.832 87.3044 113.755 84.4397 113.697L84.3173 119.695C85.6291 119.722 86.6124 120.162 87.4554 121.045L91.7935 116.9ZM84.4385 113.697C81.5724 113.639 79.0161 114.615 76.9594 116.603L81.1294 120.917C82.0066 120.069 83.0063 119.669 84.3184 119.695L84.4385 113.697ZM76.9594 116.603C74.8563 118.636 73.836 121.266 73.7777 124.229L79.7766 124.347C79.8075 122.776 80.2986 121.72 81.1294 120.917L76.9594 116.603ZM73.7777 124.228C73.7321 126.508 74.6138 128.788 75.9483 130.966L81.064 127.831C80.034 126.15 79.763 125.024 79.7765 124.348L73.7777 124.228ZM75.9483 130.966C77.3142 133.194 79.3395 135.549 81.916 138.025L86.0736 133.699C83.6964 131.415 82.0626 129.46 81.064 127.831L75.9483 130.966ZM85.9248 136.932C82.7658 134.116 80.5444 131.622 79.1488 129.454L74.1038 132.702C75.8983 135.49 78.5451 138.391 81.9323 141.411L85.9248 136.932ZM79.1488 129.454C77.7478 127.278 77.2692 125.584 77.2944 124.298L71.2956 124.18C71.2391 127.058 72.3148 129.923 74.1038 132.702L79.1488 129.454ZM77.2944 124.299C77.3429 121.878 78.1181 120.251 79.435 119.078L75.4432 114.598C72.6929 117.049 71.3721 120.357 71.2956 124.179L77.2944 124.299ZM79.435 119.078C80.9266 117.749 82.5293 117.161 84.3684 117.198L84.4885 111.199C81.0755 111.131 78.0186 112.303 75.4432 114.598L79.435 119.078ZM84.3684 117.198C86.2087 117.235 87.7869 117.886 89.224 119.274L93.3919 114.958C90.9102 112.561 87.9021 111.268 84.4885 111.199L84.3684 117.198ZM89.224 119.274C90.4925 120.499 91.2017 122.155 91.1526 124.575L97.1514 124.697C97.2289 120.875 96.042 117.517 93.3919 114.958L89.224 119.274ZM91.1526 124.576C91.1269 125.86 90.5815 127.534 89.0935 129.653L94.0042 133.101C95.9037 130.395 97.0938 127.574 97.1514 124.696L91.1526 124.576ZM89.0935 129.653C87.6113 131.765 85.2918 134.167 82.0236 136.854L85.8335 141.489C89.3381 138.608 92.0989 135.815 94.0042 133.101L89.0935 129.653Z" fill="#146A3F" mask="url(#path-6-inside-1_389_18)"/>
<defs>
<linearGradient id="paint0_linear_389_18" x1="90.489" y1="151.574" x2="63.2358" y2="31.2996" gradientUnits="userSpaceOnUse">
<stop stop-color="#E8E8E8"/>
<stop offset="1" stop-color="#A9A9A9"/>
</linearGradient>
<linearGradient id="paint1_linear_389_18" x1="78.5581" y1="102.454" x2="108.722" y2="222.032" gradientUnits="userSpaceOnUse">
<stop stop-color="#E8E8E8"/>
<stop offset="1" stop-color="#A9A9A9"/>
</linearGradient>
<linearGradient id="paint2_linear_389_18" x1="83.5542" y1="106.465" x2="84.46" y2="146.543" gradientUnits="userSpaceOnUse">
<stop stop-color="white"/>
<stop offset="1" stop-color="#CFCFCF"/>
</linearGradient>
</defs>
</svg>
