<svg width="477" height="184" viewBox="0 0 477 184" fill="none" xmlns="http://www.w3.org/2000/svg">
<path d="M453.631 83.2699C453.488 96.2753 450.041 109.064 443.571 120.586C437.101 132.108 427.794 142.035 416.413 149.552C416.215 149.68 416.01 149.815 415.804 149.95C415.591 150.092 415.37 150.234 415.15 150.369C413.87 151.192 412.566 151.98 411.236 152.733C409.363 153.798 407.447 154.799 405.488 155.736C405.427 155.765 405.358 155.793 405.297 155.822C404.171 156.361 403.034 156.872 401.887 157.355C401.848 157.369 401.818 157.384 401.78 157.398C401.513 157.511 401.232 157.632 400.958 157.739C398.833 158.619 396.663 159.421 394.456 160.131C392.575 160.749 390.666 161.303 388.73 161.793C384.77 162.812 380.737 163.566 376.662 164.051C373.188 164.468 369.689 164.69 366.186 164.718C365.897 164.725 365.607 164.725 365.318 164.725C363.407 164.725 361.504 164.668 359.623 164.555C357.979 164.455 356.35 164.321 354.735 164.136C352.246 163.859 349.786 163.49 347.365 163.007C347.259 162.993 347.152 162.972 347.045 162.95C346.962 162.936 346.87 162.915 346.787 162.901C344.35 162.425 341.952 161.843 339.599 161.175C337.384 160.55 335.209 159.845 333.074 159.059C332.526 158.861 331.986 158.662 331.445 158.449C330.098 157.923 328.765 157.377 327.456 156.787C327.075 156.624 326.702 156.454 326.329 156.283C325.065 155.708 323.816 155.104 322.598 154.465C321.129 153.706 319.685 152.908 318.266 152.073C316.477 151.022 314.725 149.914 313.028 148.743C297.943 138.407 286.769 123.869 281.119 107.227C275.469 90.585 275.635 72.6992 281.593 56.1507C287.551 39.6022 298.992 25.2468 314.266 15.156C329.541 5.06514 347.858 -0.239222 366.574 0.00828397C415.003 0.635624 454.154 38.1051 453.631 83.2699Z" fill="#434343" fill-opacity="0.74"/>
<path d="M379.154 83.4886C379.011 96.494 375.564 109.283 369.094 120.804C362.624 132.326 353.317 142.253 341.936 149.771C341.738 149.899 341.533 150.034 341.327 150.168C341.114 150.31 340.893 150.452 340.672 150.587C339.393 151.411 338.089 152.199 336.759 152.952C334.886 154.017 332.97 155.018 331.01 155.955C330.95 155.984 330.881 156.012 330.82 156.04C329.693 156.58 328.557 157.091 327.409 157.574C327.371 157.588 327.341 157.602 327.303 157.617C327.036 157.73 326.754 157.851 326.48 157.957C324.356 158.838 322.186 159.64 319.978 160.35C318.098 160.968 316.189 161.522 314.253 162.012C310.293 163.03 306.26 163.785 302.185 164.27C298.71 164.686 295.212 164.909 291.709 164.937C291.419 164.944 291.13 164.944 290.841 164.944C288.93 164.944 287.027 164.887 285.146 164.774C283.501 164.674 281.872 164.539 280.258 164.355C277.768 164.078 275.309 163.709 272.888 163.226C272.782 163.212 272.675 163.19 272.568 163.169C272.485 163.155 272.393 163.133 272.309 163.119C269.873 162.644 267.475 162.061 265.122 161.394C262.906 160.769 260.731 160.064 258.597 159.278C258.049 159.079 257.509 158.88 256.968 158.667C255.62 158.142 254.288 157.595 252.978 157.006C252.598 156.843 252.225 156.672 251.851 156.502C250.587 155.927 249.339 155.323 248.121 154.684C246.651 153.924 245.207 153.127 243.789 152.291C241.999 151.241 240.248 150.133 238.55 148.961C223.466 138.626 212.292 124.088 206.642 107.446C200.992 90.8038 201.158 72.918 207.116 56.3695C213.073 39.821 224.515 25.4655 239.789 15.3747C255.063 5.28389 273.38 -0.0204719 292.097 0.227034C340.526 0.854374 379.676 38.3239 379.154 83.4886Z" fill="#ACACAC"/>
<path d="M272.309 163.119C269.873 162.644 267.475 162.061 265.122 161.394L273.2 114.682L281.567 114.44L296.741 113.993L304.523 113.766C304.523 113.766 310.043 136.387 314.253 162.012C310.293 163.03 306.26 163.785 302.185 164.27C298.71 164.686 295.212 164.909 291.709 164.937C291.419 164.944 291.13 164.944 290.841 164.944C288.93 164.944 287.027 164.887 285.146 164.774C283.501 164.674 281.872 164.539 280.258 164.355C277.768 164.078 275.309 163.709 272.888 163.226C272.782 163.212 272.675 163.19 272.568 163.169C272.484 163.155 272.393 163.133 272.309 163.119Z" fill="#CBCBCB"/>
<path d="M269.842 163.226C269.736 163.212 269.629 163.19 269.523 163.169C269.439 163.155 269.348 163.133 269.264 163.119C266.827 162.644 264.429 162.061 262.077 161.394C259.861 160.769 257.686 160.064 255.552 159.278C255.004 159.079 254.463 158.88 253.922 158.667C252.575 158.142 251.243 157.595 249.933 157.006C249.552 156.843 249.179 156.672 248.806 156.502L248.136 121.526L268.693 113.311C268.693 113.311 268.761 113.822 278.522 114.44C280.38 120.092 269.842 163.226 269.842 163.226Z" fill="#2F2E41"/>
<path d="M334.33 119.872L330.455 138.865L330.82 156.04C329.694 156.58 328.557 157.091 327.41 157.574C327.371 157.588 327.341 157.602 327.303 157.616C327.036 157.73 326.755 157.851 326.481 157.957C324.356 158.838 322.186 159.64 319.978 160.35C318.098 160.968 316.189 161.522 314.253 162.012C310.293 163.03 306.26 163.785 302.185 164.269C298.711 164.686 295.212 164.909 291.709 164.937L291.305 134.498C290.453 124.686 293.278 118.196 296.742 113.993C315.205 111.692 314.794 111.486 314.794 111.486L334.368 119.701L334.33 119.872Z" fill="#2F2E41"/>
<path d="M256.945 124.267L255.552 159.278C255.004 159.079 254.463 158.88 253.922 158.667C252.575 158.142 251.243 157.595 249.933 157.006C249.552 156.843 249.179 156.672 248.806 156.502C247.542 155.927 246.294 155.323 245.075 154.684C243.606 153.924 242.162 153.127 240.743 152.291L248.136 121.526L256.945 124.267Z" fill="#2F2E41"/>
<path d="M341.936 149.771C341.738 149.899 341.533 150.034 341.327 150.169C341.114 150.311 340.893 150.453 340.672 150.588C339.393 151.411 338.089 152.199 336.759 152.952C334.886 154.017 332.97 155.018 331.01 155.955C330.95 155.984 330.881 156.012 330.82 156.04C329.659 156.596 328.488 157.122 327.305 157.618L327.303 157.617L325.909 122.485L334.33 119.872L334.718 119.751L341.936 149.771Z" fill="#2F2E41"/>
<path d="M311.855 87.3597C315.239 76.5967 308.65 65.32 297.138 62.1726C285.626 59.0252 273.551 65.1989 270.167 75.962C266.784 86.725 273.373 98.0017 284.884 101.149C296.396 104.296 308.471 98.1228 311.855 87.3597Z" fill="#9F616A"/>
<path d="M269.136 86.7528V78.8494C269.136 78.8494 262.301 71.3428 269.819 69.4519C269.819 69.4519 271.87 50.5427 289.64 59.367C289.64 59.367 314.244 55.5852 311.51 68.8216C311.51 68.8216 317.661 65.366 315.611 74.1903L311.645 88.4046C311.645 88.4046 313.56 79.015 307.409 77.7544L303.992 75.8635C303.992 75.8635 294.424 84.6877 280.071 73.9726C280.071 73.9726 273.92 72.6035 274.604 78.2762C275.287 83.949 269.136 86.7528 269.136 86.7528Z" fill="#2F2E41"/>
<path d="M290.841 180.818C301.957 180.818 310.969 172.415 310.969 162.048C310.969 151.681 301.957 143.278 290.841 143.278C279.725 143.278 270.713 151.681 270.713 162.048C270.713 172.415 279.725 180.818 290.841 180.818Z" fill="#22EA44"/>
<path d="M288.923 169.972L282.898 162.748L286.402 160.207L289.254 163.627L298.891 154.141L302.113 156.988L288.923 169.972Z" fill="white"/>
<path d="M282.485 82.5813C282.496 95.8579 279.06 108.94 272.472 120.709C265.884 132.479 256.339 142.586 244.653 150.168C241.361 152.317 237.914 154.25 234.336 155.955C233.149 156.523 231.953 157.063 230.735 157.574C229.638 158.042 228.535 158.483 227.415 158.902C213.533 164.143 198.454 166.019 183.584 164.355C181.01 164.071 178.47 163.68 175.962 163.183C175.856 163.162 175.742 163.14 175.635 163.119C170.384 162.083 165.248 160.593 160.293 158.667C145.524 152.95 132.695 143.6 123.177 131.615C113.659 119.631 107.809 105.462 106.25 90.6192C104.691 75.7768 107.483 60.8181 114.326 47.3393C121.17 33.8605 131.809 22.3672 145.109 14.0858C158.409 5.80444 173.87 1.04561 189.843 0.317104C205.815 -0.411399 221.7 2.91776 235.803 9.94937C249.906 16.981 261.697 27.4512 269.918 40.2429C278.14 53.0346 282.483 67.6679 282.485 82.5813Z" fill="#E4E4E4"/>
<path d="M210.429 67.2096C210.353 67.1244 210.269 67.0463 210.186 66.9682C205.467 62.5249 199.059 59.9969 192.354 59.9331C185.648 59.8693 179.186 62.2749 174.371 66.6274C174.318 66.67 174.272 66.7126 174.227 66.7552C174.166 66.8049 174.113 66.8546 174.059 66.9043C171.688 69.1102 169.807 71.7308 168.524 74.616C167.241 77.5012 166.581 80.5942 166.583 83.7176V98.6281C166.584 99.4751 166.945 100.287 167.588 100.886C168.23 101.485 169.1 101.822 170.009 101.823H214.168C215.076 101.822 215.947 101.485 216.589 100.886C217.231 100.287 217.593 99.4751 217.594 98.6281V83.7176C217.6 77.5552 215.03 71.6332 210.429 67.2096Z" fill="#2F2E41"/>
<path d="M193.112 101.675C203.439 101.675 211.811 93.8677 211.811 84.2365C211.811 74.6053 203.439 66.7976 193.112 66.7976C182.784 66.7976 174.412 74.6053 174.412 84.2365C174.412 93.8677 182.784 101.675 193.112 101.675Z" fill="#FFB7B7"/>
<path d="M212.767 82.7521L210.559 68.367C210.491 67.9254 210.249 67.5232 209.881 67.2381C209.757 67.1453 209.622 67.0666 209.478 67.0038C198.171 62.0691 186.706 62.0691 175.399 66.9896C175.248 67.0546 175.107 67.1382 174.98 67.2381C174.935 67.2736 174.889 67.3162 174.843 67.3588C174.541 67.6499 174.353 68.0277 174.31 68.4309L172.833 82.8373C172.808 83.0836 172.839 83.3321 172.923 83.5668C173.007 83.8016 173.142 84.0174 173.321 84.2005C173.608 84.4957 173.995 84.691 174.417 84.7543C174.52 84.7747 174.624 84.7842 174.729 84.7828H178.475C178.837 84.7816 179.192 84.685 179.497 84.5041C179.803 84.3232 180.048 84.0654 180.203 83.7603L181.825 80.5226C181.929 80.3128 182.103 80.1402 182.322 80.0313C182.54 79.9224 182.791 79.883 183.036 79.9191C183.281 79.9553 183.506 80.0651 183.678 80.2317C183.849 80.3983 183.958 80.6126 183.987 80.8421L184.307 83.2278C184.366 83.6564 184.59 84.0503 184.938 84.3363C185.285 84.6223 185.732 84.7809 186.195 84.7828H210.886C211.209 84.7842 211.527 84.7058 211.807 84.5556C212.003 84.4565 212.178 84.3268 212.325 84.1722C212.504 83.9788 212.636 83.7519 212.712 83.5069C212.788 83.2619 212.807 83.0045 212.767 82.7521Z" fill="#2F2E41"/>
<path d="M239.354 133.625L244.653 150.168C241.361 152.317 237.914 154.25 234.336 155.955C233.149 156.523 231.953 157.063 230.735 157.574L225.245 135.627L223.114 127.114L236.818 125.694L239.354 133.625Z" fill="#FFB7B7"/>
<path d="M176.29 130.877L175.833 153.229L175.635 163.119C170.384 162.084 165.248 160.593 160.293 158.667L162.113 137.495L162.57 132.155L176.29 130.877Z" fill="#FFB7B7"/>
<path d="M239.354 133.625L225.588 135.549L225.756 137.658L227.415 158.902C213.533 164.143 198.454 166.02 183.584 164.355C181.01 164.071 178.47 163.68 175.962 163.183C177.089 158.767 178.064 154.791 176.861 154.01C176.498 153.773 176.155 153.512 175.833 153.229C170.222 148.237 172.293 136.969 172.293 136.969L162.113 137.495L158.588 137.679C158.588 137.679 160.111 114.958 166.963 114.958H175.338L215.69 111.408C215.69 111.408 227.111 107.858 230.156 112.828C231.755 115.434 234.603 120.958 236.955 125.63C239.087 129.876 240.815 133.419 240.815 133.419L239.354 133.625Z" fill="#2F2E41"/>
<path d="M176.649 82.5813C176.66 95.8579 173.225 108.94 166.637 120.709C160.049 132.479 150.504 142.586 138.817 150.168C138.604 150.31 138.384 150.452 138.163 150.587C136.883 151.411 135.579 152.199 134.249 152.952C132.376 154.017 130.46 155.018 128.501 155.955C127.313 156.523 126.118 157.063 124.9 157.574C124.595 157.702 124.283 157.837 123.971 157.957C121.847 158.838 119.677 159.64 117.469 160.35C111.702 162.236 105.738 163.55 99.6755 164.269C95.9135 164.721 92.1243 164.946 88.3313 164.944C86.4204 164.944 84.5171 164.887 82.6363 164.773C80.9916 164.674 79.3626 164.539 77.7484 164.355C75.152 164.063 72.5862 163.673 70.0586 163.169C69.9749 163.155 69.8835 163.133 69.7998 163.119C64.5485 162.083 59.4123 160.593 54.458 158.667C53.1108 158.142 51.7784 157.595 50.4687 157.006C48.8166 156.282 47.1975 155.508 45.6113 154.684C31.9791 147.66 20.5808 137.4 12.5721 124.943C4.56345 112.486 0.229205 98.2756 0.00884352 83.7528C-0.211518 69.23 3.68985 54.9111 11.3174 42.2479C18.9449 29.5847 30.0273 19.0275 43.4409 11.6467C56.8546 4.26597 72.1225 0.324127 87.6966 0.220834C103.271 0.11754 118.597 3.85648 132.122 11.0586C145.647 18.2607 156.889 28.6698 164.709 41.2306C172.529 53.7913 176.648 68.0571 176.649 82.5813Z" fill="#F2F2F2"/>
<path d="M85.9052 102.88C96.7971 102.88 105.627 94.6458 105.627 84.4884C105.627 74.3309 96.7971 66.0967 85.9052 66.0967C75.0132 66.0967 66.1836 74.3309 66.1836 84.4884C66.1836 94.6458 75.0132 102.88 85.9052 102.88Z" fill="#AB8787"/>
<path d="M77.7485 164.355C75.1521 164.064 72.5862 163.673 70.0587 163.169L72.4569 112.843L72.7996 112.509L77.7102 107.674H93.326L99.0894 112.878L99.5767 113.325L111.903 124.338L117.469 160.35C111.702 162.236 105.738 163.55 99.6756 164.269C95.9136 164.721 92.1244 164.946 88.3314 164.944C86.4205 164.944 84.5171 164.887 82.6364 164.774C80.9917 164.674 79.3627 164.539 77.7485 164.355Z" fill="#CBCBCB"/>
<path d="M50.4688 157.006C48.8167 156.282 47.1976 155.508 45.6114 154.684C45.4515 141.052 45.3448 131.999 45.3448 131.999L47.2025 130.941C47.2247 130.93 47.2475 130.921 47.2709 130.913L68.353 118.97L72.7766 112.268L72.7997 112.509L74.1016 126.638C78.0222 139.12 80.8761 151.872 82.6365 164.774C80.9918 164.674 79.3628 164.539 77.7486 164.355C75.1522 164.064 72.5863 163.673 70.0587 163.169C69.9751 163.155 69.8836 163.134 69.8 163.119C64.5487 162.084 59.4125 160.593 54.4582 158.668C53.1109 158.142 51.7785 157.595 50.4688 157.006Z" fill="#2F2E41"/>
<path d="M117.469 160.35C111.702 162.236 105.738 163.55 99.6757 164.27C98.8356 159.687 98.5267 155.033 98.7545 150.389C100.399 125.872 96.6075 112.268 98.2522 112.268L99.0894 112.878L109.437 120.504L123.057 125.162H123.065L132.437 128.364L134.089 128.932V129.663C134.097 132.191 134.112 141.038 134.249 152.952C132.376 154.017 130.46 155.018 128.501 155.955C127.313 156.523 126.118 157.063 124.9 157.574C124.595 157.702 124.283 157.837 123.971 157.958C121.847 158.838 119.677 159.64 117.469 160.35Z" fill="#2F2E41"/>
<path d="M67.2476 90.2424C67.2476 90.2424 68.9232 87.4982 68.5337 78.3308C68.1441 69.1633 83.1134 74.3483 95.6218 73.4738C108.13 72.5992 105.482 88.7791 105.482 88.7791C105.482 88.7791 106.385 87.8173 108.317 80.0084C110.249 72.1995 105.862 64.4177 105.862 64.4177C104.57 56.212 97.6074 58.8419 97.6074 58.8419C100.961 60.0593 100.317 62.6623 100.317 62.6623C97.4782 58.0214 90.5154 60.6513 90.5154 60.6513C81.229 55.2169 71.8173 62.3734 71.8173 62.3734C60.5989 64.7478 67.1781 73.0677 67.1781 73.0677C55.8961 78.3846 67.2476 90.2424 67.2476 90.2424Z" fill="#2F2E41"/>
<path d="M36.0408 148.961C36.3304 142.72 36.4597 138.694 36.3073 138.134C35.5233 135.208 46.2281 131.289 47.2025 130.941C47.2246 130.93 47.2475 130.921 47.2709 130.913L49.4487 131.999L50.4688 157.006C48.8167 156.282 47.1975 155.508 45.6114 154.684C42.2918 152.972 39.0949 151.06 36.0408 148.961Z" fill="#2F2E41"/>
<path d="M134.249 152.952C132.376 154.017 130.46 155.018 128.501 155.955C127.313 156.523 126.118 157.063 124.9 157.574C124.595 157.702 124.283 157.837 123.971 157.957L120.545 126.411L122.547 125.048C122.547 125.048 122.73 125.09 123.057 125.161H123.065C124.671 125.531 129.605 126.752 132.437 128.364C133.069 128.698 133.63 129.138 134.089 129.663C134.369 129.976 134.508 130.378 134.477 130.785C134.386 131.608 135.909 139.419 138.163 150.587C136.884 151.411 135.579 152.199 134.249 152.952Z" fill="#2F2E41"/>
<path d="M194.167 182.283C205.283 182.283 214.294 173.879 214.294 163.513C214.294 153.146 205.283 144.742 194.167 144.742C183.051 144.742 174.039 153.146 174.039 163.513C174.039 173.879 183.051 182.283 194.167 182.283Z" fill="#22EA44"/>
<path d="M192.249 171.437L186.224 164.213L189.728 161.672L192.58 165.092L202.217 155.606L205.439 158.452L192.249 171.437Z" fill="white"/>
<path d="M88.3314 183.703C99.4476 183.703 108.459 175.299 108.459 164.933C108.459 154.566 99.4476 146.162 88.3314 146.162C77.2152 146.162 68.2037 154.566 68.2037 164.933C68.2037 175.299 77.2152 183.703 88.3314 183.703Z" fill="#22EA44"/>
<path d="M86.4134 172.857L80.3887 165.633L83.8925 163.092L86.7446 166.512L96.3812 157.026L99.6033 159.872L86.4134 172.857Z" fill="white"/>
<path d="M406.895 93.3917H399.44V100.952H396.465V93.3917H389.045V90.6967H396.465V83.1017H399.44V90.6967H406.895V93.3917ZM428.197 82.2967H415.912V90.2767C416.448 89.53 417.242 88.9233 418.292 88.4567C419.342 87.9667 420.473 87.7217 421.687 87.7217C423.623 87.7217 425.198 88.13 426.412 88.9467C427.625 89.74 428.488 90.7783 429.002 92.0617C429.538 93.3217 429.807 94.6633 429.807 96.0867C429.807 97.7667 429.492 99.2717 428.862 100.602C428.232 101.932 427.263 102.982 425.957 103.752C424.673 104.522 423.075 104.907 421.162 104.907C418.712 104.907 416.728 104.277 415.212 103.017C413.695 101.757 412.773 100.077 412.447 97.9767H415.562C415.865 99.3067 416.507 100.345 417.487 101.092C418.467 101.838 419.703 102.212 421.197 102.212C423.04 102.212 424.428 101.663 425.362 100.567C426.295 99.4467 426.762 97.9767 426.762 96.1567C426.762 94.3367 426.295 92.9367 425.362 91.9567C424.428 90.9533 423.052 90.4517 421.232 90.4517C419.995 90.4517 418.91 90.755 417.977 91.3617C417.067 91.945 416.402 92.75 415.982 93.7767H412.972V79.4967H428.197V82.2967Z" fill="white"/>
</svg>
