<svg width="328" height="616" viewBox="0 0 328 616" fill="none" xmlns="http://www.w3.org/2000/svg">
<g opacity="0.9">
<path d="M216.547 226.126C216.547 222.47 218.051 218.893 220.877 216.23L260.719 178.694C261.758 174.868 263.745 171.29 266.468 168.34C269.759 164.678 273.798 162.022 277.84 160.862C281.953 159.681 285.588 160.183 288.075 162.273C293.15 166.539 291.711 176.204 284.87 183.816C282.234 186.833 278.849 189.233 275.079 190.761L238.912 226.819L258.822 256.001C262.678 260.349 263.532 266.368 261.02 271.665C258.593 276.783 253.52 279.971 247.778 279.985C241.637 280 236.199 276.444 233.923 270.927L217.571 231.266C216.882 229.594 216.547 227.851 216.547 226.126Z" fill="#E2B2A2"/>
<path d="M266.371 242.994L242.934 260.273L272.668 280.026L287.588 249.093L266.371 242.994Z" fill="#E2B2A2"/>
<path d="M279.155 257.86C292.858 257.86 303.967 247.116 303.967 233.863C303.967 220.61 292.858 209.866 279.155 209.866C265.452 209.866 254.343 220.61 254.343 233.863C254.343 247.116 265.452 257.86 279.155 257.86Z" fill="#E2B2A2"/>
<path d="M281.085 260.755C281.085 260.755 286.675 243.444 283.063 240.172C279.45 236.9 279.565 240.283 279.565 240.283L284.147 223.602C284.147 223.602 281.964 213.91 267.5 212.577C267.5 212.577 272.638 203.15 280.106 204.706C287.574 206.261 288.046 208.039 291.219 207.44C294.391 206.841 300.966 212.409 300.966 212.409C300.966 212.409 304.333 209.751 303.952 213.031C303.57 216.311 307.149 221.672 307.149 221.672C307.149 221.672 309.186 220.443 308.625 223.883C308.064 227.324 310.7 229.133 310.7 229.133C310.7 229.133 307.21 231.312 308.33 233.031C309.45 234.751 313.924 236.103 312.233 237.85C310.541 239.597 311.812 243.64 306.086 247.907C300.361 252.173 281.085 260.755 281.085 260.755Z" fill="#2F2E41"/>
<path d="M295.784 573.55L295.576 573.341L237.005 514.486C231.336 508.79 228.592 501.015 229.475 493.154L232.53 465.96L262.193 471.177L263.327 488.32L313.149 566.479L295.784 573.55Z" fill="#E2B2A2"/>
<path d="M302.901 616C301.956 616 301.023 615.767 300.171 615.31C298.109 614.202 296.97 611.942 297.338 609.689L299.374 597.219L288.861 575.188L291.634 567.143L307.507 566.29L312.798 561.173L318.724 562.17C322.268 562.766 325.219 564.896 326.82 568.012C328.42 571.129 328.392 574.689 326.742 577.781L307.924 613.043C307.218 614.366 306.017 615.333 304.543 615.763C304.001 615.922 303.449 616 302.901 616Z" fill="#2F2E41"/>
<path d="M273.149 408.933L261.779 478.301L206.675 503.68L197.928 436.003L273.149 408.933Z" fill="#2F2E41"/>
<path d="M241.555 553.247L241.346 553.038L182.776 494.183C177.107 488.487 174.363 480.712 175.246 472.851L178.301 445.657L207.964 450.873L209.098 468.017L258.92 546.176L241.555 553.247Z" fill="#E2B2A2"/>
<path d="M248.672 595.697C247.727 595.697 246.793 595.464 245.942 595.007C243.88 593.898 242.741 591.639 243.109 589.385L245.145 576.916L234.632 554.885L237.404 546.84L253.278 545.987L258.569 540.87L264.494 541.867C268.039 542.463 270.99 544.593 272.591 547.709C274.191 550.826 274.163 554.386 272.512 557.478L253.695 592.739C252.989 594.063 251.788 595.029 250.313 595.46C249.772 595.618 249.22 595.697 248.672 595.697Z" fill="#2F2E41"/>
<path d="M210.469 385.695L204.314 401.888L176.673 445.55C175.861 446.832 175.73 448.366 176.315 449.76C176.899 451.153 178.097 452.166 179.602 452.539L240.605 467.668L268.845 429.312C276.901 418.37 281.069 404.977 280.599 391.557L210.469 385.695Z" fill="#2F2E41"/>
<path d="M273.43 402.165H203.428L203.468 401.708L212.306 298.099C213.464 284.52 220.724 272.22 232.225 264.352L232.346 264.27L280.195 265.983L269.806 359.367L283.621 386.265C285.385 389.701 285.191 393.698 283.101 396.958C281.011 400.219 277.396 402.165 273.43 402.165Z" fill="#22EA44"/>
<path d="M254.286 285.113C250.291 285.113 246.395 283.545 243.516 280.604L213.166 249.596C209.174 245.518 208.125 239.571 210.493 234.444L233.169 185.322C232.672 181.396 233.151 177.361 234.557 173.646C236.215 169.069 238.952 165.157 242.265 162.634C245.636 160.066 249.204 159.231 252.314 160.287C258.659 162.437 261.017 171.931 257.569 181.45C256.272 185.193 254.043 188.635 251.124 191.403L231.296 237.836L260.949 257.835C266.191 260.496 269.286 265.783 268.976 271.605C268.677 277.228 265.18 282.004 259.85 284.068C258.037 284.771 256.151 285.113 254.286 285.113Z" fill="#E2B2A2"/>
<path d="M134.343 100.876C135.378 99.8484 136.465 98.9153 137.591 98.091C142.179 94.7323 141.527 93.1325 145.499 94.3777C149.471 95.6225 151.745 97.2617 152.707 102.36C153.651 107.366 153.79 112.824 151.28 118.677C149.3 123.466 138.348 130.554 134.343 134.149L129.566 185.274L120.158 211.778L106.765 251.586C106.765 251.586 98.2922 257.576 93.2903 257.474C88.2885 257.373 80.8741 247.78 80.8741 247.78C76.2227 227.193 119.598 141.709 122.934 134.149L124.007 127.135C123.662 122.167 124.595 117.034 126.71 112.281C128.592 107.893 131.237 103.96 134.343 100.876Z" fill="#6C4E3D"/>
<path d="M67.3262 204.309L88.921 221.49L61.5245 241.131L47.7771 210.373L67.3262 204.309Z" fill="#735442"/>
<path d="M55.5475 219.092C42.9218 219.092 32.6866 208.409 32.6866 195.23C32.6866 182.052 42.9218 171.369 55.5475 171.369C68.1732 171.369 78.4083 182.052 78.4083 195.23C78.4083 208.409 68.1732 219.092 55.5475 219.092Z" fill="#735442"/>
<path d="M53.7696 221.969C53.7696 221.969 48.6183 204.757 51.9472 201.503C55.276 198.25 55.1701 201.614 55.1701 201.614L50.948 185.028C50.948 185.028 52.9598 175.39 66.2865 174.065C66.2865 174.065 61.5525 164.691 54.6715 166.238C47.7905 167.785 47.3552 169.552 44.4323 168.957C41.5094 168.361 35.4516 173.898 35.4516 173.898C35.4516 173.898 32.3489 171.255 32.7004 174.516C33.052 177.777 29.7548 183.108 29.7548 183.108C29.7548 183.108 27.8775 181.886 28.3944 185.307C28.9112 188.728 26.4822 190.527 26.4822 190.527C26.4822 190.527 29.6979 192.694 28.6663 194.403C27.6347 196.113 23.512 197.457 25.0704 199.194C26.6289 200.931 25.4584 204.952 30.7336 209.194C36.0088 213.436 53.7696 221.969 53.7696 221.969Z" fill="#2F2E41"/>
<path d="M40.3716 532.852L40.5609 532.645L93.756 474.347C98.9048 468.705 101.397 461.003 100.595 453.217L97.8203 426.281L70.8798 431.448L69.8496 448.429L24.6 525.847L40.3716 532.852Z" fill="#88644F"/>
<path d="M33.8305 575.012C34.707 575.012 35.5732 574.778 36.3634 574.319C38.2765 573.206 39.333 570.938 38.9922 568.675L37.1028 556.157L46.8571 534.039L44.2846 525.963L29.5564 525.107L24.6476 519.97L19.1498 520.971C15.8609 521.569 13.1227 523.707 11.6375 526.835C10.1531 529.964 10.1793 533.538 11.7104 536.643L29.1697 572.042C29.8251 573.371 30.9394 574.341 32.3073 574.774C32.8097 574.933 33.3217 575.012 33.8305 575.012Z" fill="black"/>
<path d="M60.9143 368.897L71.5389 437.491L123.027 462.586L131.2 395.666L60.9143 368.897Z" fill="#2F2E41"/>
<path d="M101.888 512.943L102.043 512.736L145.417 454.439C149.616 448.796 151.648 441.095 150.994 433.309L148.731 406.373L126.764 411.539L125.924 428.521L89.0286 505.938L101.888 512.943Z" fill="#88644F"/>
<path d="M101.022 553.931C101.87 553.931 102.709 553.698 103.473 553.239C105.325 552.126 106.347 549.858 106.017 547.595L104.189 535.077L113.629 512.959L111.139 504.883L96.8859 504.027L92.1354 498.89L86.815 499.891C83.6322 500.489 80.9824 502.627 79.5451 505.755C78.1086 508.884 78.1339 512.458 79.6156 515.562L96.5117 550.962C97.1459 552.291 98.2243 553.261 99.548 553.693C100.034 553.853 100.53 553.931 101.022 553.931Z" fill="black"/>
<path d="M119.442 346.647L125.091 362.609L150.454 405.649C151.2 406.913 151.32 408.426 150.784 409.799C150.247 411.172 149.148 412.171 147.767 412.539L91.7892 427.453L65.8751 389.643C58.4831 378.857 54.6589 365.654 55.09 352.424L119.442 346.647Z" fill="#2F2E41"/>
<path d="M60.8619 361.871H125.343L125.307 361.416L117.166 258.466C116.099 244.973 109.411 232.751 98.8173 224.934L98.7056 224.852L54.6304 226.554L64.1995 319.344L51.4745 346.071C49.8498 349.485 50.0284 353.457 51.9537 356.697C53.8782 359.937 57.2088 361.871 60.8619 361.871Z" fill="#22EA44"/>
<path d="M118.519 101.717C119.554 100.69 120.64 99.7569 121.766 98.9325C126.355 95.5739 125.703 93.974 129.675 95.2192C133.647 96.464 135.92 98.1032 136.882 103.201C137.827 108.208 137.965 113.666 135.455 119.518C133.476 124.307 122.523 131.395 118.519 134.991L113.741 186.115L104.334 212.619L90.9403 252.428C90.9403 252.428 82.4678 258.417 77.4659 258.316C72.464 258.214 65.0496 248.622 65.0496 248.622C60.3983 228.034 103.773 142.55 107.11 134.991L108.182 127.976C107.837 123.009 108.771 117.876 110.886 113.122C112.767 108.735 115.412 104.801 118.519 101.717Z" fill="#88644F"/>
<g opacity="0.8">
<path d="M203.632 150.264C203.632 150.264 212.792 160.216 228.504 157.692C244.216 155.172 250.516 140.942 251.813 132.831C253.461 122.5 248.891 115.398 248.648 115.009C248.467 114.724 203.632 150.264 203.632 150.264Z" fill="#DC5819"/>
<path d="M202.917 107.587C193.505 117.82 191.909 132.767 198.986 144.319C202.279 149.694 204.295 150.786 204.295 150.786C204.295 150.786 219.692 160.984 236.996 145.525C251.817 132.285 248.677 115.044 248.677 115.044C248.677 115.044 246.828 110.87 242.939 106.908C234.308 98.1075 215.017 94.4259 202.917 107.587Z" fill="#EF6C32"/>
<path d="M240.642 104.895C240.504 104.905 226.736 105.928 212.172 126.147C202.974 138.915 203.427 147.927 203.785 150.397C203.785 150.397 203.084 149.802 202.588 149.251C202.093 148.704 201.707 148.217 201.707 148.217C201.669 143.891 202.922 135.691 210.647 124.971C222.404 108.635 233.646 104.378 238.359 103.275C238.359 103.275 238.936 103.625 239.493 103.984C239.903 104.25 240.642 104.895 240.642 104.895Z" fill="#2D3130"/>
<path d="M200.42 110.673C201.95 113.267 205.643 118.873 212.039 124.725C220.088 132.098 228.456 138.093 236.901 142.537C240.89 144.639 243.954 145.869 246.122 146.593C246.122 146.593 245.808 147.09 245.512 147.498C245.217 147.907 244.893 148.251 244.893 148.251C242.686 147.479 239.741 146.248 236.029 144.289C227.441 139.766 218.939 133.678 210.771 126.196C204.719 120.654 201.049 115.408 199.248 112.469C199.248 112.469 199.5 111.953 199.834 111.495C200.168 111.037 200.42 110.673 200.42 110.673Z" fill="#2D3130"/>
<path d="M218.344 99.3477C217.662 100.15 216.69 101.454 215.556 103.428C214.517 105.229 213.983 107.021 213.364 109.098C212.348 112.504 211.2 116.363 207.44 121.294C202.217 128.146 197.084 130.434 194.692 131.168C194.692 131.168 194.625 130.528 194.601 130.08C194.577 129.632 194.587 129.125 194.587 129.125C196.86 128.323 201.359 126.078 205.939 120.079C209.48 115.432 210.571 111.761 211.538 108.522C212.167 106.415 212.758 104.427 213.916 102.424C214.464 101.474 214.979 100.662 215.451 99.9826C215.451 99.9826 215.98 99.8005 216.704 99.6331C217.267 99.4953 218.344 99.3477 218.344 99.3477ZM225.749 158.036C224.153 156.545 220.855 153.139 218.448 148.399C215.784 143.157 214.536 135.272 218.091 130.346C222.151 124.725 229.733 123.962 236.625 123.962H236.653C245.427 123.967 252.027 125.862 252.103 125.886C252.103 125.886 252.051 125.222 251.979 124.656C251.917 124.169 251.851 123.716 251.851 123.716C251.517 123.627 245.684 121.998 236.653 121.993H236.625C229.262 121.993 221.122 122.85 216.561 129.169C213.626 133.235 212.549 141.041 216.761 149.315C218.744 153.213 221.241 156.22 223.066 158.115C223.066 158.115 223.6 158.135 224.282 158.125C224.954 158.115 225.749 158.036 225.749 158.036Z" fill="#2D3130"/>
</g>
</g>
</svg>
