<svg width="263" height="435" viewBox="0 0 263 435" fill="none" xmlns="http://www.w3.org/2000/svg">
<path d="M170.205 111.587C170.205 108.56 171.448 105.599 173.782 103.394L206.7 72.3168C207.559 69.1494 209.201 66.1871 211.45 63.7446C214.17 60.7133 217.506 58.5143 220.846 57.554C224.245 56.5759 227.247 56.9911 229.302 58.7222C233.495 62.2536 232.307 70.256 226.655 76.5581C224.477 79.0553 221.68 81.0429 218.565 82.3076L188.683 112.161L205.133 136.321C208.319 139.921 209.025 144.904 206.949 149.29C204.944 153.527 200.752 156.167 196.008 156.178C190.934 156.191 186.442 153.247 184.561 148.679L171.051 115.843C170.481 114.458 170.205 113.015 170.205 111.587Z" fill="#E2B2A2"/>
<path d="M211.37 125.553L192.006 139.859L216.573 156.212L228.901 130.602L211.37 125.553Z" fill="#E2B2A2"/>
<path d="M221.933 137.861C233.254 137.861 242.433 128.966 242.433 117.993C242.433 107.021 233.254 98.1255 221.933 98.1255C210.611 98.1255 201.433 107.021 201.433 117.993C201.433 128.966 210.611 137.861 221.933 137.861Z" fill="#E2B2A2"/>
<path d="M223.527 140.257C223.527 140.257 228.146 125.925 225.161 123.216C222.176 120.508 222.271 123.309 222.271 123.309L226.057 109.498C226.057 109.498 224.253 101.474 212.303 100.37C212.303 100.37 216.548 92.5652 222.718 93.8529C228.888 95.1407 229.279 96.6127 231.9 96.1168C234.521 95.6209 239.953 100.231 239.953 100.231C239.953 100.231 242.735 98.0306 242.42 100.746C242.105 103.461 245.062 107.899 245.062 107.899C245.062 107.899 246.745 106.882 246.281 109.731C245.818 112.579 247.996 114.077 247.996 114.077C247.996 114.077 245.113 115.881 246.038 117.305C246.963 118.728 250.66 119.847 249.262 121.294C247.865 122.74 248.914 126.088 244.184 129.62C239.453 133.152 223.527 140.257 223.527 140.257Z" fill="#2F2E41"/>
<path d="M235.672 399.227L235.499 399.054L187.108 350.327C182.424 345.611 180.156 339.174 180.886 332.666L183.41 310.151L207.918 314.47L208.855 328.664L250.019 393.373L235.672 399.227Z" fill="#E2B2A2"/>
<path d="M241.552 434.372C240.771 434.372 240 434.179 239.296 433.801C237.593 432.883 236.652 431.013 236.956 429.147L238.638 418.823L229.952 400.583L232.243 393.922L245.358 393.216L249.729 388.98L254.625 389.806C257.554 390.299 259.992 392.062 261.314 394.642C262.636 397.223 262.613 400.17 261.25 402.73L245.702 431.924C245.119 433.019 244.126 433.82 242.908 434.176C242.461 434.307 242.005 434.372 241.552 434.372Z" fill="#2F2E41"/>
<path d="M216.971 262.937L207.576 320.369L162.048 341.38L154.822 285.349L216.971 262.937Z" fill="#2F2E41"/>
<path d="M190.866 382.418L190.694 382.245L142.303 333.518C137.619 328.802 135.351 322.364 136.081 315.857L138.605 293.342L163.113 297.661L164.05 311.855L205.214 376.564L190.866 382.418Z" fill="#E2B2A2"/>
<path d="M196.747 417.563C195.966 417.563 195.195 417.37 194.491 416.992C192.788 416.074 191.847 414.204 192.15 412.338L193.833 402.014L185.147 383.774L187.438 377.113L200.553 376.407L204.924 372.171L209.82 372.996C212.748 373.49 215.187 375.253 216.509 377.833C217.831 380.413 217.808 383.361 216.444 385.921L200.897 415.115C200.314 416.21 199.321 417.011 198.103 417.367C197.656 417.498 197.2 417.563 196.747 417.563Z" fill="#2F2E41"/>
<path d="M165.183 243.698L160.098 257.105L137.26 293.253C136.589 294.315 136.481 295.585 136.964 296.739C137.446 297.892 138.437 298.73 139.68 299.04L190.082 311.565L213.415 279.81C220.07 270.751 223.514 259.662 223.125 248.551L165.183 243.698Z" fill="#2F2E41"/>
<path d="M217.202 257.334H159.366L159.398 256.955L166.7 171.175C167.657 159.933 173.656 149.749 183.158 143.235L183.258 143.167L222.792 144.586L214.209 221.9L225.622 244.17C227.08 247.014 226.919 250.324 225.192 253.023C223.466 255.722 220.479 257.334 217.202 257.334Z" fill="#22EA44"/>
<path d="M201.386 160.423C198.085 160.424 194.866 159.126 192.487 156.691L167.411 131.018C164.113 127.642 163.247 122.718 165.203 118.473L183.939 77.8046C183.528 74.5543 183.924 71.2138 185.085 68.138C186.454 64.3482 188.716 61.1096 191.453 59.0207C194.239 56.8942 197.186 56.2034 199.756 57.0776C204.999 58.8572 206.947 66.7174 204.098 74.5988C203.026 77.6979 201.185 80.5473 198.773 82.8393L182.391 121.282L206.89 137.84C211.222 140.043 213.779 144.42 213.523 149.24C213.276 153.896 210.386 157.85 205.983 159.559C204.484 160.141 202.926 160.423 201.386 160.423Z" fill="#E2B2A2"/>
<path d="M102.286 7.88981C103.142 7.03914 104.039 6.26666 104.969 5.58415C108.76 2.80345 108.222 1.4789 111.503 2.50983C114.785 3.54042 116.664 4.89756 117.459 9.11847C118.239 13.2636 118.353 17.7824 116.279 22.6276C114.644 26.5925 105.595 32.4606 102.286 35.4374L98.3389 77.7646L90.5663 99.7078L79.5003 132.666C79.5003 132.666 72.5001 137.625 68.3675 137.541C64.2349 137.457 58.1089 129.515 58.1089 129.515C54.2659 112.47 90.1031 41.6963 92.8597 35.4374L93.746 29.6301C93.4611 25.5174 94.2324 21.2676 95.9797 17.3324C97.5341 13.6997 99.7196 10.4432 102.286 7.88981Z" fill="#6C4E3D"/>
<path d="M46.9156 93.5244L64.7576 107.749L42.1221 124.01L30.7637 98.5449L46.9156 93.5244Z" fill="#735442"/>
<path d="M37.1837 105.763C26.7521 105.763 18.2956 96.9185 18.2956 86.0081C18.2956 75.0976 26.7521 66.2529 37.1837 66.2529C47.6153 66.2529 56.0718 75.0976 56.0718 86.0081C56.0718 96.9185 47.6153 105.763 37.1837 105.763Z" fill="#735442"/>
<path d="M35.7147 108.145C35.7147 108.145 31.4587 93.8949 34.209 91.2015C36.9594 88.508 36.8718 91.2931 36.8718 91.2931L33.3835 77.5609C33.3835 77.5609 35.0456 69.5819 46.0564 68.4847C46.0564 68.4847 42.1451 60.724 36.4599 62.0045C30.7747 63.2849 30.4151 64.7486 28.0001 64.2555C25.5851 63.7624 20.5801 68.3464 20.5801 68.3464C20.5801 68.3464 18.0165 66.1584 18.307 68.8583C18.5974 71.5582 15.8732 75.9714 15.8732 75.9714C15.8732 75.9714 14.3222 74.9598 14.7492 77.7923C15.1762 80.6247 13.1694 82.1137 13.1694 82.1137C13.1694 82.1137 15.8262 83.9077 14.9739 85.3231C14.1216 86.7385 10.7153 87.8513 12.0029 89.2897C13.2905 90.728 12.3234 94.0567 16.6819 97.5687C21.0404 101.081 35.7147 108.145 35.7147 108.145Z" fill="#2F2E41"/>
<path d="M24.6452 365.532L24.8016 365.361L68.7524 317.095C73.0065 312.424 75.0659 306.047 74.4032 299.601L72.1104 277.3L49.8517 281.578L49.0005 295.637L11.6144 359.733L24.6452 365.532Z" fill="#88644F"/>
<path d="M19.2408 400.437C19.965 400.437 20.6807 400.243 21.3335 399.864C22.9142 398.942 23.787 397.064 23.5055 395.191L21.9444 384.827L30.0037 366.515L27.8782 359.828L15.7095 359.12L11.6537 354.867L7.11135 355.695C4.39395 356.191 2.13163 357.961 0.904537 360.551C-0.321894 363.142 -0.300287 366.1 0.964779 368.67L15.3899 397.979C15.9314 399.079 16.8521 399.882 17.9823 400.24C18.3974 400.372 18.8204 400.437 19.2408 400.437Z" fill="black"/>
<path d="M41.6178 229.791L50.396 286.581L92.9367 307.358L99.6892 251.953L41.6178 229.791Z" fill="#2F2E41"/>
<path d="M75.4715 349.049L75.599 348.878L111.436 300.612C114.905 295.941 116.584 289.565 116.043 283.118L114.174 260.817L96.0245 265.095L95.3304 279.154L64.8464 343.25L75.4715 349.049Z" fill="#88644F"/>
<path d="M74.7557 382.985C75.4565 382.985 76.1491 382.791 76.7809 382.412C78.3106 381.49 79.1553 379.612 78.8828 377.739L77.3721 367.375L85.1714 349.063L83.1145 342.376L71.3383 341.668L67.4133 337.415L63.0175 338.243C60.3878 338.738 58.1984 340.509 57.0109 343.099C55.8241 345.689 55.845 348.648 57.0692 351.218L71.0291 380.527C71.5531 381.627 72.4441 382.43 73.5378 382.788C73.9395 382.92 74.3489 382.985 74.7557 382.985Z" fill="black"/>
<path d="M89.975 211.369L94.6415 224.584L115.598 260.218C116.213 261.265 116.313 262.517 115.87 263.654C115.427 264.791 114.518 265.618 113.377 265.922L67.1273 278.27L45.7166 246.966C39.6091 238.036 36.4495 227.105 36.8057 216.152L89.975 211.369Z" fill="#2F2E41"/>
<path d="M41.5747 223.973H94.8501L94.8202 223.597L88.0939 138.362C87.2124 127.191 81.6868 117.073 72.9342 110.6L72.8419 110.532L36.4261 111.942L44.3323 188.765L33.8187 210.893C32.4763 213.719 32.6238 217.008 34.2146 219.69C35.8046 222.372 38.5564 223.973 41.5747 223.973Z" fill="#22EA44"/>
<path d="M89.212 8.58659C90.0671 7.73592 90.9644 6.96344 91.8948 6.28093C95.686 3.50022 95.1472 2.17568 98.4289 3.20661C101.711 4.2372 103.589 5.59433 104.384 9.81525C105.164 13.9603 105.279 18.4791 103.205 23.3243C101.57 27.2893 92.5205 33.1574 89.212 36.1342L85.2645 78.4613L77.4919 100.405L66.4258 133.363C66.4258 133.363 59.4257 138.322 55.2931 138.238C51.1604 138.154 45.0345 130.212 45.0345 130.212C41.1915 113.167 77.0286 42.3931 79.7852 36.1342L80.6715 30.3269C80.3866 26.2142 81.158 21.9643 82.9052 18.0291C84.4596 14.3965 86.6452 11.14 89.212 8.58659Z" fill="#88644F"/>
<path d="M159.534 48.78C159.534 48.78 167.102 57.0195 180.084 54.929C193.066 52.8427 198.271 41.0621 199.342 34.3466C200.704 25.7933 196.928 19.9132 196.727 19.5913C196.578 19.3549 159.534 48.78 159.534 48.78Z" fill="#DC5819"/>
<path d="M158.944 13.4465C151.167 21.9182 149.848 34.2938 155.695 43.8576C158.416 48.3075 160.081 49.2121 160.081 49.2121C160.081 49.2121 172.803 57.6554 187.1 44.856C199.346 33.8944 196.751 19.62 196.751 19.62C196.751 19.62 195.223 16.1644 192.01 12.8841C184.88 5.59814 168.941 2.5501 158.944 13.4465Z" fill="#EF6C32"/>
<path d="M190.113 11.2171C189.998 11.2253 178.623 12.0729 166.59 28.8127C158.991 39.383 159.365 46.8442 159.66 48.8898C159.66 48.8898 159.081 48.3968 158.672 47.9404C158.262 47.4881 157.944 47.0846 157.944 47.0846C157.912 43.5028 158.948 36.7139 165.33 27.8388C175.044 14.3141 184.332 10.7892 188.227 9.87646C188.227 9.87646 188.703 10.1658 189.164 10.4633C189.502 10.6833 190.113 11.2171 190.113 11.2171Z" fill="#2D3130"/>
<path d="M156.88 16.0015C158.144 18.149 161.196 22.7903 166.48 27.6354C173.13 33.7396 180.045 38.7029 187.022 42.3826C190.317 44.1225 192.849 45.1413 194.641 45.7403C194.641 45.7403 194.381 46.1519 194.137 46.4901C193.893 46.8283 193.625 47.1135 193.625 47.1135C191.802 46.4738 189.368 45.4551 186.301 43.8332C179.206 40.0884 172.181 35.0477 165.433 28.8538C160.432 24.2654 157.4 19.9215 155.912 17.4888C155.912 17.4888 156.121 17.0609 156.396 16.682C156.672 16.303 156.88 16.0015 156.88 16.0015Z" fill="#2D3130"/>
<path d="M171.689 6.625C171.126 7.28921 170.323 8.36907 169.386 10.0031C168.527 11.4945 168.086 12.9778 167.574 14.6974C166.736 17.5173 165.787 20.712 162.68 24.7951C158.365 30.4674 154.124 32.3623 152.148 32.9694C152.148 32.9694 152.092 32.4397 152.073 32.0689C152.053 31.698 152.061 31.2783 152.061 31.2783C153.939 30.6141 157.656 28.7559 161.44 23.7886C164.365 19.9419 165.267 16.902 166.066 14.2207C166.586 12.4766 167.074 10.8303 168.031 9.17183C168.484 8.38537 168.909 7.71301 169.299 7.15067C169.299 7.15067 169.736 6.99989 170.335 6.86135C170.799 6.74725 171.689 6.625 171.689 6.625ZM177.808 55.2145C176.489 53.9798 173.764 51.1599 171.776 47.2357C169.575 42.8959 168.543 36.3679 171.48 32.2889C174.835 27.6353 181.1 27.0037 186.793 27.0037H186.817C194.066 27.0078 199.519 28.5766 199.582 28.597C199.582 28.597 199.539 28.0469 199.48 27.5783C199.428 27.1749 199.373 26.8 199.373 26.8C199.098 26.7266 194.278 25.3778 186.817 25.3737H186.793C180.71 25.3737 173.985 26.0828 170.216 31.315C167.791 34.6809 166.901 41.1437 170.382 47.9937C172.02 51.221 174.083 53.7108 175.591 55.2797C175.591 55.2797 176.032 55.296 176.595 55.2878C177.15 55.2797 177.808 55.2145 177.808 55.2145Z" fill="#2D3130"/>
</svg>
