<svg width="82" height="87" viewBox="0 0 82 87" fill="none" xmlns="http://www.w3.org/2000/svg">
<path d="M44.6018 37.3356C37.1334 29.8672 38.2824 17.9465 47.187 9.04193C56.8097 -0.58078 71.1719 -2.87874 78.0658 3.87152C84.9597 10.7654 82.5181 25.1277 72.8954 34.7504C63.9908 43.655 52.0701 44.804 44.6018 37.3356ZM75.4806 6.45673C70.1666 1.14269 57.815 3.58428 49.7722 11.6271C42.3038 19.0955 41.2984 28.8619 47.187 34.7504C53.2191 40.6389 62.8418 39.6336 70.3102 32.1652C78.3531 24.1223 80.7947 11.9144 75.4806 6.45673Z" fill="#727878"/>
<path d="M21.585 57.6728L44.6508 34.6343L47.1886 37.1735L24.1228 60.2149L21.585 57.6728Z" fill="#727878"/>
<path d="M43.5963 33.1709L39.7185 37.0487C38.2823 38.4849 38.2823 40.7829 39.7185 42.2191C41.1548 43.6553 43.4527 43.6553 44.8889 42.2191L48.7668 38.3413L43.5963 33.1709Z" fill="#727878"/>
<path opacity="0.5" d="M11.5684 65.1989L10.4194 66.4915L18.0314 69.0767L11.5684 65.1989ZM9.12684 67.7841L7.83423 69.0767L15.4462 71.5183L9.12684 67.7841ZM6.54163 70.3693L5.24903 71.5183L12.861 74.1035L6.54163 70.3693ZM3.95642 72.8109L2.66382 74.1035L10.4194 76.6887L3.95642 72.8109ZM1.37122 75.3961L0.0786133 76.6887L7.83423 79.2739L1.37122 75.3961ZM16.7388 65.1989L14.8717 63.1882L22.1965 58.4486L23.4891 59.7412L16.7388 65.1989Z" fill="#727878"/>
<path d="M49.0297 53.2069C46.3234 55.9132 46.3234 60.3286 49.0297 63.1772L59 53.2069C56.2938 50.5007 51.8783 50.5007 49.0297 53.2069Z" fill="#DADADA"/>
<path d="M64.6087 58.6174L62.1449 56.1772L52 66.2251L54.4638 68.6653L62.1449 86.1772L64.6087 83.7371L63.1594 80.2921L65.6232 77.8519L67.7971 80.7227L70.2609 78.2825L68.087 75.4117L70.5507 72.9715L73.3043 75.2682L75.7681 72.828L73.0145 70.5313L76.058 67.517L79.5362 68.9524L82 66.5122L64.6087 58.6174ZM62.2899 65.938L61.7101 66.5122L59.5362 63.6414L62.2899 65.938ZM63.4493 74.8375L61.5652 76.7036L60.1159 73.2586L61.4203 71.9667L63.4493 74.8375ZM59.2464 69.0959L58.6667 69.6701L57.2174 66.2251L59.2464 69.0959ZM66.058 72.2538L63.8841 69.383L65.1884 68.0911L67.942 70.3878L66.058 72.2538ZM62.1449 61.2012L65.6232 62.6366L64.8986 63.3543L62.1449 61.2012ZM70.4058 67.9476L67.6522 65.6509L69.1015 64.2155L72.5797 65.6509L70.4058 67.9476Z" fill="#DADADA"/>
</svg>
