<svg width="35" height="56" viewBox="0 0 35 56" fill="none" xmlns="http://www.w3.org/2000/svg">
<path d="M6.93547 54.8447L34.1129 30.2746C34.4354 29.9821 34.6645 29.6652 34.7999 29.324C34.9354 28.9827 35.0021 28.6171 34.9999 28.2271C34.9999 27.8371 34.9322 27.4715 34.7967 27.1302C34.6612 26.789 34.4333 26.4721 34.1129 26.1796L6.93547 1.53645C6.18279 0.853946 5.24193 0.512695 4.1129 0.512695C2.98387 0.512695 2.01613 0.878321 1.20967 1.60957C0.403225 2.34082 0 3.19395 0 4.16895C0 5.14395 0.403225 5.99708 1.20967 6.72833L24.9193 28.2271L1.20967 49.7259C0.456989 50.4084 0.0806465 51.2498 0.0806465 52.2502C0.0806465 53.2505 0.483871 54.1154 1.29032 54.8447C2.09677 55.5759 3.03763 55.9415 4.1129 55.9415C5.18816 55.9415 6.12902 55.5759 6.93547 54.8447Z" fill="#545454"/>
</svg>
