<svg width="77" height="87" viewBox="0 0 77 87" fill="none" xmlns="http://www.w3.org/2000/svg">
<g clip-path="url(#clip0_33_67)">
<path d="M65.086 16.4219C69.0325 16.4219 72.2344 12.8 72.2344 8.33594C72.2344 3.87183 69.0325 0.25 65.086 0.25C61.1395 0.25 57.9376 3.87183 57.9376 8.33594C57.9376 12.8 61.1395 16.4219 65.086 16.4219ZM75.9576 76.4094C74.5577 74.8259 72.294 74.8259 70.909 76.4094C69.107 78.4477 66.3668 79.0037 64.1924 77.875L43.9683 66.0493L51.2955 53.6172C53.1868 50.4165 52.8145 46.1208 50.4019 43.4087L44.3853 36.5862L28.4503 27.6411C28.0184 30.9934 28.9566 34.3794 31.0862 36.8052L42.2706 49.4731L35.4349 61.063L5.96246 43.8298C4.22003 42.8191 2.06061 43.5771 1.15216 45.5649C0.243715 47.5527 0.928773 49.9954 2.6861 51.0061L61.0501 85.1186C62.8223 86.0452 64.6988 86.4831 66.5753 86.4831C70.0303 86.4831 73.4258 84.967 75.9576 82.1033C77.3426 80.5366 77.3426 77.9761 75.9576 76.4094ZM18.6212 15.6807L16.9085 19.4709C19.053 20.7007 21.555 20.2964 23.2825 18.6624L30.3118 22.6042C30.2969 22.6211 30.2969 22.6379 30.282 22.6548L47.334 32.2231L52.1592 30.0332L53.1124 33.2507C53.7081 35.2891 54.9888 36.9568 56.6866 37.917L65.3392 42.8022C67.7071 44.1331 70.5516 43.0549 71.7281 40.3933C72.9046 37.7317 71.9515 34.4973 69.5984 33.1665L61.8394 28.7698L59.2928 20.1448C58.0865 16.0681 53.2017 10.6101 46.7086 13.5413L34.6158 19.0161L25.3079 13.7939C25.3526 11.3513 24.2357 8.97607 22.1954 7.79687L20.5423 11.4524H20.5125L15.3895 10.2732C15.1214 10.2058 14.8384 10.3069 14.6448 10.5596C14.3619 10.9302 14.3917 11.4861 14.7193 11.8062L18.6212 15.6807Z" fill="#545454"/>
</g>
<defs>
<clipPath id="clip0_33_67">
<rect width="76.25" height="86.25" fill="white" transform="translate(0.75 0.25)"/>
</clipPath>
</defs>
</svg>
