<svg width="93" height="93" viewBox="0 0 93 93" fill="none" xmlns="http://www.w3.org/2000/svg">
<g clip-path="url(#clip0_33_56)">
<path d="M88.1531 65.0734C98.5126 42.1669 88.3413 15.1996 65.4349 4.84012C42.5285 -5.51937 15.5611 4.65191 5.20161 27.5583C-5.15788 50.4647 5.01341 77.4321 27.9198 87.7916C50.8262 98.1511 77.7936 87.9798 88.1531 65.0734Z" fill="#D8CCC8"/>
<path d="M42.453 71.8363C60.4969 71.8363 75.1243 57.2089 75.1243 39.1651C75.1243 21.1212 60.4969 6.49377 42.453 6.49377C24.4092 6.49377 9.78174 21.1212 9.78174 39.1651C9.78174 57.2089 24.4092 71.8363 42.453 71.8363Z" fill="#EFEBE9"/>
<path d="M66.1997 48.2778C66.0479 48.0754 65.8528 47.902 65.5998 47.7864C65.3325 47.6635 65.0506 47.6346 64.7833 47.6635C57.6073 44.65 51.6237 43.8262 49.369 43.6166C47.0926 38.9627 45.51 34.3594 44.6428 29.8211C50.9227 29.4598 74.4885 29.5826 92.0924 49.3256C92.1936 47.8369 92.2153 46.3483 92.1647 44.8668C73.7442 26.2584 50.3012 26.3596 44.1731 26.7426C43.5516 21.5756 43.8551 16.5026 45.0981 11.5524C50.9372 11.35 70.6151 11.8053 87.07 25.3623C85.7861 22.8865 84.2792 20.533 82.5678 18.3309C67.8184 9.18206 52.2741 8.33655 46.0159 8.43049C47.1288 5.16409 48.4729 2.61311 49.5208 0.893188C48.3356 0.820923 47.1504 0.792017 45.9725 0.80647C44.3784 3.72958 43.1387 6.83243 42.2797 10.0492C41.0368 14.6742 40.2202 20.9252 41.3114 28.383C41.3114 28.4625 41.3114 28.542 41.3186 28.6215C41.3331 28.7155 41.3547 28.8094 41.3836 28.8961C42.1497 33.774 43.7323 39.1578 46.5579 44.9391C45.2354 46.6735 41.4704 51.284 35.6385 55.8512C32.2204 50.9949 19.6028 30.3125 30.9846 3.59592C29.626 4.09456 28.2963 4.65823 26.9956 5.27971C17.2541 31.8157 29.7344 52.6932 33.1598 57.6867C29.3731 60.3606 24.8709 62.8826 19.7401 64.6532C16.7194 59.2838 6.45767 38.2184 15.2452 13.3879C13.4963 15.05 11.8776 16.8711 10.3961 18.8295C5.06294 41.1162 13.4385 59.544 16.7122 65.5854C13.4313 66.4742 9.91919 67.009 6.19751 67.1174C6.73228 68.158 7.29595 69.1842 7.91021 70.1815C11.762 69.9502 15.3752 69.2782 18.7356 68.2881C19.1764 68.4399 19.675 68.3965 20.087 68.1219C20.2459 68.0135 20.376 67.8834 20.4844 67.7389C36.6936 62.3334 46.753 49.8893 49.1161 46.7024C51.0528 46.883 56.3209 47.584 62.7309 50.1567C59.4284 56.3354 45.9436 78.4703 20.4917 83.5506C21.6768 84.3817 22.9053 85.1621 24.1917 85.892C49.1667 79.417 62.3624 57.4699 65.5782 51.3996C69.3504 53.1701 73.3829 55.5838 77.2924 58.9153C75.2184 63.2151 64.3352 83.6951 42.4893 91.6444C45.0114 91.8756 47.5334 91.9045 50.0266 91.7166C67.5293 82.6907 76.9456 66.4309 79.6772 61.0832C82.106 63.4339 84.3078 66.0083 86.2534 68.7723C86.823 67.761 87.3557 66.7293 87.8504 65.6793C81.2237 56.7979 73.2456 51.4647 66.1997 48.2778Z" fill="#BDAAA4"/>
</g>
<defs>
<clipPath id="clip0_33_56">
<rect width="92.5" height="92.5" fill="white" transform="translate(0.25 0.25)"/>
</clipPath>
</defs>
</svg>
