<svg width="354" height="354" viewBox="0 0 354 354" fill="none" xmlns="http://www.w3.org/2000/svg">
<path d="M0 0H354V354H0V0Z" fill="url(#paint0_linear_298_43)"/>
<path d="M236.995 63.0001C171.936 112.228 47.9568 174.807 152.288 208.644" stroke="url(#paint1_linear_298_43)" stroke-width="18" stroke-linecap="square"/>
<path d="M248.852 66.9409C183.792 116.169 59.8132 178.748 164.144 212.584" stroke="white" stroke-width="18" stroke-linecap="square"/>
<path d="M121.431 292.285C185.276 241.493 307.7 175.924 202.579 144.629" stroke="url(#paint2_linear_298_43)" stroke-width="18" stroke-linecap="square"/>
<path d="M109.482 288.634C173.328 237.841 295.751 172.272 190.63 140.977" stroke="white" stroke-width="18" stroke-linecap="square"/>
<path d="M176.554 156.465C181.693 156.348 186.99 158.651 190.649 161.576C188.43 163.507 186.979 165.567 185.792 168.224C184.605 170.882 184.417 173.53 184.479 176.425C184.606 182.517 187.003 186.979 191.478 190.547C187.944 193.634 182.528 196.429 177.389 196.545C172.251 196.661 166.954 194.839 163.294 191.914C165.513 189.983 167.545 187.282 168.732 184.625C169.919 181.967 170.107 179.632 170.044 176.737C169.917 170.645 167.521 165.87 163.046 162.302C166.58 159.215 171.416 156.581 176.554 156.465ZM197.526 176.04C197.623 180.689 196.088 184.995 193.425 188.463C191.54 187.001 190.009 185.15 188.941 183.043C187.874 180.936 187.296 178.625 187.249 176.272C187.146 171.323 189.355 166.842 192.912 163.814C195.815 167.265 197.44 171.571 197.526 176.04ZM156.418 176.969C156.321 172.32 157.856 168.015 160.518 164.546C162.404 166.009 163.935 167.859 165.002 169.966C166.07 172.073 166.647 174.385 166.695 176.737C166.798 181.687 164.588 186.168 161.032 189.195C158.129 185.744 156.504 181.438 156.418 176.969Z" fill="url(#paint3_linear_298_43)"/>
<mask id="path-7-inside-1_298_43" fill="white">
<path d="M176.995 185.862C179.565 183.582 181.479 181.502 182.738 179.622C183.996 177.742 184.64 176.063 184.67 174.587C184.715 172.318 184.033 170.447 182.624 168.972C181.215 167.497 179.467 166.739 177.378 166.696C175.289 166.654 173.511 167.342 172.044 168.76C170.577 170.178 169.822 172.021 169.777 174.288C169.748 175.766 170.324 177.469 171.506 179.398C172.688 181.327 174.518 183.482 176.995 185.862ZM176.929 189.171C173.655 186.254 171.221 183.556 169.626 181.078C168.031 178.6 167.254 176.321 167.295 174.239C167.358 171.117 168.406 168.65 170.439 166.838C172.473 165.026 174.802 164.146 177.428 164.199C180.055 164.251 182.349 165.224 184.308 167.116C186.267 169.008 187.215 171.515 187.152 174.636C187.11 176.717 186.243 178.964 184.549 181.377C182.855 183.79 180.315 186.388 176.929 189.171Z"/>
</mask>
<path d="M176.995 185.862C179.565 183.582 181.479 181.502 182.738 179.622C183.996 177.742 184.64 176.063 184.67 174.587C184.715 172.318 184.033 170.447 182.624 168.972C181.215 167.497 179.467 166.739 177.378 166.696C175.289 166.654 173.511 167.342 172.044 168.76C170.577 170.178 169.822 172.021 169.777 174.288C169.748 175.766 170.324 177.469 171.506 179.398C172.688 181.327 174.518 183.482 176.995 185.862ZM176.929 189.171C173.655 186.254 171.221 183.556 169.626 181.078C168.031 178.6 167.254 176.321 167.295 174.239C167.358 171.117 168.406 168.65 170.439 166.838C172.473 165.026 174.802 164.146 177.428 164.199C180.055 164.251 182.349 165.224 184.308 167.116C186.267 169.008 187.215 171.515 187.152 174.636C187.11 176.717 186.243 178.964 184.549 181.377C182.855 183.79 180.315 186.388 176.929 189.171Z" fill="#146A3F"/>
<path d="M176.995 185.862L174.916 188.025L176.913 189.945L178.986 188.107L176.995 185.862ZM184.67 174.587L187.669 174.647L184.67 174.587ZM177.378 166.696L177.44 163.697L177.439 163.697L177.378 166.696ZM169.777 174.288L172.777 174.348L172.777 174.347L169.777 174.288ZM176.929 189.171L174.932 191.411L176.849 193.12L178.834 191.489L176.929 189.171ZM167.295 174.239L164.296 174.179L164.296 174.18L167.295 174.239ZM187.152 174.636L184.153 174.575L184.153 174.576L187.152 174.636ZM178.986 188.107C181.659 185.735 183.777 183.463 185.231 181.291L180.245 177.953C179.182 179.541 177.471 181.43 175.004 183.618L178.986 188.107ZM185.231 181.291C186.651 179.169 187.624 176.926 187.669 174.647L181.67 174.527C181.657 175.201 181.341 176.315 180.245 177.953L185.231 181.291ZM187.669 174.647C187.729 171.683 186.814 169.014 184.794 166.9L180.455 171.045C181.253 171.879 181.702 172.953 181.67 174.527L187.669 174.647ZM184.794 166.9C182.818 164.832 180.304 163.755 177.44 163.697L177.317 169.695C178.629 169.722 179.612 170.162 180.455 171.045L184.794 166.9ZM177.439 163.697C174.572 163.639 172.016 164.615 169.959 166.603L174.129 170.917C175.007 170.069 176.006 169.669 177.318 169.695L177.439 163.697ZM169.959 166.603C167.856 168.636 166.836 171.266 166.778 174.229L172.777 174.347C172.807 172.776 173.299 171.72 174.129 170.917L169.959 166.603ZM166.778 174.228C166.732 176.508 167.614 178.788 168.948 180.966L174.064 177.831C173.034 176.15 172.763 175.024 172.777 174.348L166.778 174.228ZM168.948 180.966C170.314 183.194 172.339 185.549 174.916 188.025L179.074 183.699C176.696 181.415 175.063 179.46 174.064 177.831L168.948 180.966ZM178.925 186.932C175.766 184.116 173.544 181.622 172.149 179.454L167.104 182.702C168.898 185.49 171.545 188.391 174.932 191.411L178.925 186.932ZM172.149 179.454C170.748 177.278 170.269 175.584 170.294 174.298L164.296 174.18C164.239 177.058 165.315 179.923 167.104 182.702L172.149 179.454ZM170.294 174.299C170.343 171.878 171.118 170.251 172.435 169.078L168.443 164.598C165.693 167.049 164.372 170.357 164.296 174.179L170.294 174.299ZM172.435 169.078C173.927 167.749 175.529 167.161 177.368 167.198L177.489 161.199C174.075 161.131 171.019 162.303 168.443 164.598L172.435 169.078ZM177.368 167.198C179.209 167.235 180.787 167.886 182.224 169.274L186.392 164.958C183.91 162.561 180.902 161.268 177.489 161.199L177.368 167.198ZM182.224 169.274C183.493 170.499 184.202 172.155 184.153 174.575L190.151 174.697C190.229 170.875 189.042 167.517 186.392 164.958L182.224 169.274ZM184.153 174.576C184.127 175.86 183.581 177.534 182.093 179.653L187.004 183.101C188.904 180.395 190.094 177.574 190.151 174.696L184.153 174.576ZM182.093 179.653C180.611 181.765 178.292 184.167 175.024 186.854L178.834 191.489C182.338 188.608 185.099 185.815 187.004 183.101L182.093 179.653Z" fill="#146A3F" mask="url(#path-7-inside-1_298_43)"/>
<defs>
<linearGradient id="paint0_linear_298_43" x1="177" y1="0" x2="177" y2="354" gradientUnits="userSpaceOnUse">
<stop stop-color="#128D50"/>
<stop offset="1" stop-color="#0B5832"/>
</linearGradient>
<linearGradient id="paint1_linear_298_43" x1="183.489" y1="201.574" x2="156.236" y2="81.2996" gradientUnits="userSpaceOnUse">
<stop stop-color="#E8E8E8"/>
<stop offset="1" stop-color="#A9A9A9"/>
</linearGradient>
<linearGradient id="paint2_linear_298_43" x1="171.558" y1="152.454" x2="201.722" y2="272.032" gradientUnits="userSpaceOnUse">
<stop stop-color="#E8E8E8"/>
<stop offset="1" stop-color="#A9A9A9"/>
</linearGradient>
<linearGradient id="paint3_linear_298_43" x1="176.554" y1="156.465" x2="177.46" y2="196.543" gradientUnits="userSpaceOnUse">
<stop stop-color="white"/>
<stop offset="1" stop-color="#CFCFCF"/>
</linearGradient>
</defs>
</svg>
