<?xml version="1.0" standalone="no"?>
<!DOCTYPE svg PUBLIC "-//W3C//DTD SVG 20010904//EN"
 "http://www.w3.org/TR/2001/REC-SVG-20010904/DTD/svg10.dtd">
<svg version="1.0" xmlns="http://www.w3.org/2000/svg"
 width="700.000000pt" height="700.000000pt" viewBox="0 0 700.000000 700.000000"
 preserveAspectRatio="xMidYMid meet">
<metadata>
Created by potrace 1.14, written by Peter Selinger 2001-2017
</metadata>
<g transform="translate(0.000000,700.000000) scale(0.100000,-0.100000)"
fill="#000000" stroke="none">
<path d="M0 3500 l0 -3500 3500 0 3500 0 0 3500 0 3500 -3500 0 -3500 0 0
-3500z m4784 2415 l57 -75 54 41 c30 22 58 38 64 35 5 -3 51 -61 102 -129 51
-67 96 -127 101 -134 15 -18 -291 -244 -867 -638 -705 -483 -956 -670 -1234
-918 -271 -243 -430 -477 -431 -632 0 -191 255 -370 740 -521 47 -14 88 -29
92 -33 5 -4 -17 -82 -48 -173 l-55 -166 -137 45 c-265 86 -458 156 -564 203
-429 191 -635 447 -615 764 14 234 143 455 436 746 271 269 551 485 1236 955
453 310 688 475 845 594 80 60 150 110 156 110 6 1 37 -33 68 -74z m-834
-1571 c480 -147 671 -243 850 -423 135 -136 190 -263 190 -442 0 -74 -6 -117
-26 -185 -111 -384 -501 -781 -1434 -1458 -124 -89 -357 -259 -519 -376 -161
-117 -366 -270 -455 -339 -88 -70 -166 -130 -173 -134 -9 -6 -93 86 -130 142
-1 2 -25 -15 -54 -38 -28 -22 -56 -41 -60 -41 -9 0 -219 260 -219 271 0 8 352
281 550 425 91 67 305 223 477 347 814 591 1152 885 1337 1167 79 120 108 188
114 270 6 93 -20 151 -107 232 -114 108 -287 191 -586 283 -82 25 -151 48
-153 50 -3 3 87 313 95 328 7 11 17 9 303 -79z m-318 -464 c27 -10 68 -30 93
-45 l46 -26 -29 -33 c-15 -18 -39 -49 -51 -70 -20 -31 -26 -35 -33 -22 -19 34
-95 67 -153 67 -60 0 -130 -32 -159 -72 -14 -21 -14 -21 -32 8 -10 15 -34 45
-53 66 l-36 38 30 25 c40 32 126 73 178 84 54 11 140 3 199 -20z m233 -201
c32 -63 46 -154 35 -226 -11 -68 -59 -168 -80 -168 -21 0 -86 92 -102 144 -30
104 -6 217 62 295 39 43 40 42 85 -45z m-650 30 c63 -75 91 -174 75 -260 -12
-64 -45 -130 -81 -165 l-27 -26 -24 38 c-76 121 -85 261 -26 379 38 76 45 78
83 34z m362 -29 c65 -39 87 -110 59 -184 -9 -25 -44 -73 -76 -108 l-60 -63
-45 50 c-56 62 -95 138 -95 184 0 105 127 176 217 121z m164 -405 c24 -26 39
-49 33 -53 -55 -39 -106 -67 -153 -84 -104 -36 -248 -20 -349 39 l-42 25 34
39 c38 41 86 128 86 154 0 10 32 -17 74 -62 l74 -78 43 40 c24 22 60 58 79 81
l35 41 22 -48 c11 -26 40 -68 64 -94z"/>
</g>
</svg>
